<svg width="893" height="14" viewBox="0 0 893 14" fill="none" xmlns="http://www.w3.org/2000/svg">
<circle cx="7" cy="7" r="7" fill="black"/>
<circle cx="53" cy="7" r="4" fill="black"/>
<circle cx="97.5" cy="6.5" r="2.5" fill="black"/>
<circle cx="137.5" cy="6.5" r="2.5" fill="black"/>
<circle cx="177.5" cy="6.5" r="2.5" fill="black"/>
<circle cx="217.5" cy="6.5" r="2.5" fill="black"/>
<circle cx="257.5" cy="6.5" r="2.5" fill="black"/>
<circle cx="300" cy="7" r="7" fill="black"/>
<circle cx="300" cy="7" r="7" fill="black"/>
<circle cx="346" cy="7" r="4" fill="black"/>
<circle cx="390.5" cy="6.5" r="2.5" fill="black"/>
<circle cx="430.5" cy="6.5" r="2.5" fill="black"/>
<circle cx="470.5" cy="6.5" r="2.5" fill="black"/>
<circle cx="510.5" cy="6.5" r="2.5" fill="black"/>
<circle cx="550.5" cy="6.5" r="2.5" fill="black"/>
<circle cx="593" cy="7" r="7" fill="black"/>
<circle cx="593" cy="7" r="7" fill="black"/>
<circle cx="639" cy="7" r="4" fill="black"/>
<circle cx="683.5" cy="6.5" r="2.5" fill="black"/>
<circle cx="723.5" cy="6.5" r="2.5" fill="black"/>
<circle cx="763.5" cy="6.5" r="2.5" fill="black"/>
<circle cx="803.5" cy="6.5" r="2.5" fill="black"/>
<circle cx="843.5" cy="6.5" r="2.5" fill="black"/>
<circle cx="886" cy="7" r="7" fill="black"/>
</svg>
