<?xml version="1.0" encoding="utf-8"?>
<!-- Generator: Adobe Illustrator 24.0.0, SVG Export Plug-In . SVG Version: 6.00 Build 0)  -->
<svg version="1.1" id="Capa_1" xmlns="http://www.w3.org/2000/svg" xmlns:xlink="http://www.w3.org/1999/xlink" x="0px" y="0px"
	 viewBox="0 0 256 256" style="enable-background:new 0 0 256 256;" xml:space="preserve">
<style type="text/css">
	.st0{fill:#020203;}
</style>
<g transform="translate(0,-952.36218)">
	<path class="st0" d="M122.78,1203.4l20.43-99.29H60.16l122.6-145.54l-20.43,99.29h83.05L122.78,1203.4z M77.47,1096.04h75.63
		l-16.02,77.84l90.96-107.95h-75.63l16.02-77.84L77.47,1096.04z M67.48,1082.06H23.56c-1.86,0-3.38-1.52-3.38-3.38l0,0
		c0-1.86,1.52-3.38,3.38-3.38h43.92c1.86,0,3.38,1.52,3.38,3.38l0,0C70.86,1080.54,69.34,1082.06,67.48,1082.06z M53.4,1107.54H9.48
		c-1.86,0-3.38-1.52-3.38-3.38l0,0c0-1.86,1.52-3.38,3.38-3.38H53.4c1.86,0,3.38,1.52,3.38,3.38l0,0
		C56.78,1106.02,55.26,1107.54,53.4,1107.54z M72.55,1132.31H28.63c-1.86,0-3.38-1.52-3.38-3.38l0,0c0-1.86,1.52-3.38,3.38-3.38
		h43.92c1.86,0,3.38,1.52,3.38,3.38l0,0C75.93,1130.79,74.41,1132.31,72.55,1132.31z"/>
</g>
</svg>
