<svg xmlns="http://www.w3.org/2000/svg" viewBox="0 0 537.78 512"><title>Asset 1medidor-luz</title><g id="Layer_2" data-name="Layer 2"><g id="Layer_1-2" data-name="Layer 1"><path d="M463.11,512H74.67C33.5,512,0,478.32,0,436.92V75.08C0,33.68,33.5,0,74.67,0H463.11c41.18,0,74.67,33.68,74.67,75.08V436.92C537.78,478.32,504.29,512,463.11,512ZM74.67,16.85A58.14,58.14,0,0,0,16.76,75.08V436.92a58.14,58.14,0,0,0,57.91,58.23H463.11A58.14,58.14,0,0,0,521,436.92V75.08a58.14,58.14,0,0,0-57.91-58.23Z"/><path d="M268.89,475.81A218.11,218.11,0,0,1,113.23,411a222.16,222.16,0,0,1,0-313,219.31,219.31,0,0,1,311.32,0,222.16,222.16,0,0,1,0,313A218.11,218.11,0,0,1,268.89,475.81Zm0-431.74c-115.4,0-209.29,94.39-209.29,210.42s93.89,210.42,209.29,210.42,209.29-94.39,209.29-210.42S384.3,44.07,268.89,44.07Z"/><path d="M268.89,448.64c-106.33,0-192.84-87-192.84-193.88S162.56,60.87,268.89,60.87s192.85,87,192.85,193.89S375.23,448.64,268.89,448.64Zm0-376.87c-100.35,0-182,82.09-182,183s81.65,183,182,183,182-82.09,182-183S369.25,71.77,268.89,71.77Z"/><path d="M329,144.3H208.83a5.45,5.45,0,0,1,0-10.9H329a5.45,5.45,0,0,1,0,10.9Z"/><path d="M361,166.35H176.8a5.46,5.46,0,0,1,0-10.91H361a5.46,5.46,0,0,1,0,10.91Z"/><path d="M155.51,272.91H137.13a17.32,17.32,0,0,1-17.25-17.34V237.09a17.32,17.32,0,0,1,17.25-17.35h18.38a17.32,17.32,0,0,1,17.25,17.35v18.48A17.32,17.32,0,0,1,155.51,272.91Zm-18.38-42.27a6.44,6.44,0,0,0-6.41,6.45v18.48a6.44,6.44,0,0,0,6.41,6.44h18.38a6.44,6.44,0,0,0,6.41-6.44V237.09a6.44,6.44,0,0,0-6.41-6.45Z"/><path d="M216.12,272.91H197.74a17.32,17.32,0,0,1-17.25-17.34V237.09a17.32,17.32,0,0,1,17.25-17.35h18.38a17.32,17.32,0,0,1,17.26,17.35v18.48A17.32,17.32,0,0,1,216.12,272.91Zm-18.38-42.27a6.44,6.44,0,0,0-6.41,6.45v18.48a6.44,6.44,0,0,0,6.41,6.44h18.38a6.43,6.43,0,0,0,6.41-6.44V237.09a6.43,6.43,0,0,0-6.41-6.45Z"/><path d="M276.18,272.91H257.8a17.32,17.32,0,0,1-17.25-17.34V237.09a17.32,17.32,0,0,1,17.25-17.35h18.38a17.32,17.32,0,0,1,17.26,17.35v18.48A17.32,17.32,0,0,1,276.18,272.91ZM257.8,230.64a6.44,6.44,0,0,0-6.41,6.45v18.48A6.44,6.44,0,0,0,257.8,262h18.38a6.43,6.43,0,0,0,6.41-6.44V237.09a6.43,6.43,0,0,0-6.41-6.45Z"/><path d="M340.59,272.91H322.21A17.32,17.32,0,0,1,305,255.57V237.09a17.32,17.32,0,0,1,17.25-17.35h18.38a17.32,17.32,0,0,1,17.26,17.35v18.48A17.32,17.32,0,0,1,340.59,272.91Zm-18.38-42.27a6.44,6.44,0,0,0-6.41,6.45v18.48a6.44,6.44,0,0,0,6.41,6.44h18.38a6.43,6.43,0,0,0,6.41-6.44V237.09a6.43,6.43,0,0,0-6.41-6.45Z"/><path d="M400.65,272.91H382.27A17.32,17.32,0,0,1,365,255.57V237.09a17.32,17.32,0,0,1,17.25-17.35h18.38a17.32,17.32,0,0,1,17.26,17.35v18.48A17.32,17.32,0,0,1,400.65,272.91Zm-18.38-42.27a6.44,6.44,0,0,0-6.41,6.45v18.48a6.44,6.44,0,0,0,6.41,6.44h18.38a6.43,6.43,0,0,0,6.41-6.44V237.09a6.43,6.43,0,0,0-6.41-6.45Z"/><path d="M319,387.75H218.76a30,30,0,0,1-29.87-30v-1.17a30,30,0,0,1,29.87-30H319a30,30,0,0,1,29.87,30v1.17A30,30,0,0,1,319,387.75ZM218.76,337.44a19.09,19.09,0,0,0-19,19.12v1.17a19.09,19.09,0,0,0,19,19.12H319a19.09,19.09,0,0,0,19-19.12v-1.17a19.09,19.09,0,0,0-19-19.12Z"/><path d="M315.81,362.6H222a5.46,5.46,0,0,1,0-10.91h93.84a5.46,5.46,0,0,1,0,10.91Z"/></g></g></svg>