<svg width="11" height="20" viewBox="0 0 11 20" fill="none" xmlns="http://www.w3.org/2000/svg">
<path d="M6.79456 20H3.69064C3.17206 20 2.75189 19.5664 2.75189 19.0312V11.8047H0.938747C0.420165 11.8047 0 11.3711 0 10.8359V7.74219C0 7.20703 0.420165 6.77344 0.938747 6.77344H2.74811V5.22266C2.74811 3.6875 3.21748 2.37891 4.09945 1.44141C4.99277 0.496094 6.23434 0 7.69546 0L10.0613 0.00390625C10.5798 0.00390625 11 0.441406 11 0.972656V3.84766C11 4.38281 10.5798 4.81641 10.0613 4.81641H8.46765C7.98314 4.81641 7.85822 4.91797 7.83173 4.94922C7.7863 5 7.7371 5.14453 7.7371 5.54297V6.76953H9.94391C10.1105 6.76953 10.2694 6.8125 10.4095 6.89062C10.7085 7.0625 10.894 7.38672 10.894 7.73828V10.832C10.894 11.3672 10.4738 11.8008 9.95527 11.8008H7.74088V19.0234C7.73331 19.5664 7.31315 20 6.79456 20ZM3.88747 18.8281H6.59773V11.2812C6.59773 10.9258 6.87784 10.6328 7.22608 10.6328H9.75086V7.94141H7.2223C6.87784 7.94141 6.59394 7.65234 6.59394 7.29297V5.54688C6.59394 5.08984 6.63937 4.56641 6.97247 4.17578C7.37749 3.70312 8.01721 3.64844 8.46008 3.64844H9.85685V1.17578L7.69546 1.17188C5.34859 1.17188 3.88747 2.72266 3.88747 5.21875V7.29297C3.88747 7.64844 3.60736 7.94141 3.25912 7.94141H1.13558V10.6328H3.25912C3.60358 10.6328 3.88747 10.9219 3.88747 11.2812V18.8281Z" fill="white"/>
</svg>
