<svg width="539" height="497" viewBox="0 0 539 497" fill="none" xmlns="http://www.w3.org/2000/svg">
<path d="M423.3 158.2C379.6 74.0998 276 41.3998 191.9 85.0998C107.8 128.8 75.1 232.4 118.8 316.5C162.5 400.6 266.1 433.3 350.2 389.6C434.2 345.9 467 242.3 423.3 158.2Z" fill="#F3BD48"/>
<path d="M215.5 478.9C220.913 478.9 225.3 474.513 225.3 469.1C225.3 463.688 220.913 459.3 215.5 459.3C210.088 459.3 205.7 463.688 205.7 469.1C205.7 474.513 210.088 478.9 215.5 478.9Z" fill="#F3BD48"/>
<path d="M527.5 309.6C532.913 309.6 537.3 305.212 537.3 299.8C537.3 294.388 532.913 290 527.5 290C522.088 290 517.7 294.388 517.7 299.8C517.7 305.212 522.088 309.6 527.5 309.6Z" fill="#F3BD48"/>
<path d="M448.2 92.6C453.612 92.6 458 88.2124 458 82.8C458 77.3876 453.612 73 448.2 73C442.788 73 438.4 77.3876 438.4 82.8C438.4 88.2124 442.788 92.6 448.2 92.6Z" fill="#F3BD48"/>
<path d="M113.7 39.3002C119.112 39.3002 123.5 34.9126 123.5 29.5002C123.5 24.0878 119.112 19.7002 113.7 19.7002C108.288 19.7002 103.9 24.0878 103.9 29.5002C103.9 34.9126 108.288 39.3002 113.7 39.3002Z" fill="#F3BD48"/>
<path d="M47.3 178.3C52.7124 178.3 57.1 173.913 57.1 168.5C57.1 163.088 52.7124 158.7 47.3 158.7C41.8876 158.7 37.5 163.088 37.5 168.5C37.5 173.913 41.8876 178.3 47.3 178.3Z" fill="#F3BD48"/>
<path d="M495.5 313.6C495.1 313.6 494.7 313.5 494.3 313.4C492.2 312.7 491 310.4 491.7 308.3C510.4 249 505 186 476.3 130.9C473.8 126.1 471.2 121.4 468.4 116.9C467.2 115 467.8 112.5 469.8 111.3C471.7 110.1 474.2 110.7 475.4 112.7C478.3 117.4 481 122.3 483.6 127.2C513.3 184.3 518.9 249.5 499.5 310.8C498.8 312.5 497.2 313.6 495.5 313.6Z" fill="#F3BD48"/>
<path d="M156.6 450.2C155.9 450.2 155.3 450 154.7 449.7C112.5 426.8 78.4001 392 56.1001 349.2C35.2001 309 26.1001 264 29.7001 219.1C29.9001 216.9 31.8001 215.2 34.1001 215.4C36.3001 215.6 38.0001 217.5 37.8001 219.8C34.3001 263.2 43.1001 306.7 63.3001 345.6C84.8001 387 117.7 420.5 158.5 442.7C160.5 443.8 161.2 446.2 160.1 448.2C159.4 449.5 158 450.2 156.6 450.2Z" fill="#F3BD48"/>
<path d="M66.0003 121.6C65.3003 121.6 64.6003 121.4 64.0003 121.1C62.1003 120 61.4003 117.5 62.5003 115.5C74.0003 95.7 88.1003 77.6 104.5 61.8C107 59.3 167.7 0 271 0C273.2 0 275.1 1.8 275.1 4.1C275.1 6.4 273.3 8.2 271 8.2C171.2 8.2 110.7 67.1 110.1 67.6C94.2003 82.9 80.5003 100.4 69.4003 119.6C68.7003 120.9 67.4003 121.6 66.0003 121.6Z" fill="#F3BD48"/>
<path d="M301.4 445.4C299.5 445.4 297.8 444 297.5 442.1C297.2 440 298.7 437.9 300.8 437.6C322.7 434.3 343.9 427.4 363.8 417.1C411.6 392.2 446.9 350.2 463.2 298.8C479.5 247.4 474.7 192.7 449.8 144.9C398.5 46.1002 276.4 7.50018 177.6 58.9002C129.8 83.8002 94.4003 125.8 78.2003 177.2C62.0003 228.5 66.7003 283.2 91.6003 331C92.6003 332.9 91.9003 335.3 89.9003 336.3C88.0003 337.3 85.6003 336.6 84.6003 334.6C58.8003 284.9 53.8003 228.1 70.7003 174.7C87.6003 121.3 124.3 77.7002 174 51.8002C276.6 -1.49982 403.5 38.6002 456.8 141.2C482.6 190.9 487.6 247.7 470.7 301.1C453.8 354.5 417.1 398.2 367.4 424C346.8 434.7 324.7 441.9 301.9 445.3C301.8 445.4 301.6 445.4 301.4 445.4Z" fill="#F3BD48"/>
<path d="M177.9 496.8C177.5 496.8 177 496.7 176.6 496.6C155.4 489.4 143.2 481.7 141.6 480.6C121.5 469.8 102.6 455.6 85.4001 438.4C37.1001 390.1 17.7001 334.8 16.9001 332.4C-20.1999 232.7 5.00006 120.2 81.2001 45.8001C82.8001 44.2001 85.4001 44.3001 87.0001 45.9001C88.6001 47.5001 88.5001 50.1001 86.9001 51.7001C13.0001 123.7 -11.4999 232.9 24.6001 329.7C24.8001 330.3 44.3001 385.8 91.2001 432.6C107.9 449.3 126.2 463.1 145.7 473.5L146 473.7C146.1 473.8 158 481.6 179.3 488.9C181.4 489.6 182.6 491.9 181.8 494.1C181.2 495.8 179.6 496.8 177.9 496.8Z" fill="#F3BD48"/>
<path d="M533.1 268.5C533 268.5 532.8 268.5 532.7 268.5C530.5 268.3 528.8 266.3 529.1 264.1C533 224.4 527.9 185.1 513.9 147.4C498.4 105.9 472.6 68.9001 439.2 40.3001C438.8 39.9001 421.4 23.1001 388.6 7.8001C386.6 6.9001 385.7 4.4001 386.6 2.4001C387.5 0.400104 390 -0.499896 392 0.400104C426.2 16.3001 444 33.6001 444.7 34.3001C479 63.6001 505.6 101.8 521.5 144.5C536 183.4 541.3 223.8 537.2 264.8C536.9 267 535.1 268.5 533.1 268.5Z" fill="#F3BD48"/>
</svg>
