<svg width="332" height="124" viewBox="0 0 332 124" fill="none" xmlns="http://www.w3.org/2000/svg">
<g clip-path="url(#clip0)">
<path d="M323.9 5.83135C323.9 7.59866 325.332 9.03135 327.1 9.03135C328.867 9.03135 330.3 7.59866 330.3 5.83135C330.3 4.06404 328.867 2.63135 327.1 2.63135C325.332 2.63135 323.9 4.06404 323.9 5.83135Z" fill="#0A050C"/>
<path d="M288.7 5.83135C288.7 7.32252 289.908 8.53135 291.4 8.53135C292.891 8.53135 294.1 7.32252 294.1 5.83135C294.1 4.34018 292.891 3.13135 291.4 3.13135C289.908 3.13135 288.7 4.34018 288.7 5.83135Z" fill="#0A050C"/>
<path d="M252.5 5.83144C252.5 7.54353 253.888 8.93145 255.6 8.93145C257.312 8.93145 258.7 7.54353 258.7 5.83145C258.7 4.11936 257.312 2.73145 255.6 2.73145C253.888 2.73145 252.5 4.11936 252.5 5.83144Z" fill="#0A050C"/>
<path d="M215.9 5.83154C215.9 8.04068 217.691 9.83154 219.9 9.83154C222.109 9.83154 223.9 8.04068 223.9 5.83154C223.9 3.6224 222.109 1.83154 219.9 1.83154C217.691 1.83154 215.9 3.6224 215.9 5.83154Z" fill="#0A050C"/>
<path d="M179 5.83135C179 8.70323 181.328 11.0313 184.2 11.0313C187.072 11.0313 189.4 8.70323 189.4 5.83135C189.4 2.95947 187.072 0.631348 184.2 0.631347C181.328 0.631347 179 2.95947 179 5.83135Z" fill="#0A050C"/>
<path d="M143.2 5.83115C143.2 8.2612 145.17 10.2312 147.6 10.2312C150.03 10.2312 152 8.2612 152 5.83115C152 3.4011 150.03 1.43115 147.6 1.43115C145.17 1.43115 143.2 3.4011 143.2 5.83115Z" fill="#0A050C"/>
<path d="M108.4 5.83154C108.4 7.76454 109.967 9.33154 111.9 9.33154C113.833 9.33154 115.4 7.76454 115.4 5.83154C115.4 3.89855 113.833 2.33154 111.9 2.33154C109.967 2.33154 108.4 3.89855 108.4 5.83154Z" fill="#0A050C"/>
<path d="M72.9999 5.83135C72.9999 7.59866 74.4326 9.03135 76.1999 9.03135C77.9672 9.03135 79.3999 7.59866 79.3999 5.83135C79.3999 4.06404 77.9672 2.63135 76.1999 2.63135C74.4326 2.63135 72.9999 4.06404 72.9999 5.83135Z" fill="#0A050C"/>
<path d="M36.7001 5.83135C36.7001 7.8748 38.3567 9.53135 40.4001 9.53135C42.4436 9.53135 44.1001 7.8748 44.1001 5.83135C44.1001 3.78789 42.4436 2.13135 40.4001 2.13135C38.3567 2.13135 36.7001 3.78789 36.7001 5.83135Z" fill="#0A050C"/>
<path d="M-9.17582e-05 5.83135C-9.18716e-05 8.42709 2.10415 10.5313 4.69989 10.5313C7.29563 10.5313 9.3999 8.42709 9.3999 5.83135C9.3999 3.23561 7.29563 1.13135 4.69989 1.13135C2.10415 1.13135 -9.16447e-05 3.23561 -9.17582e-05 5.83135Z" fill="#0A050C"/>
</g>
<g clip-path="url(#clip1)">
<path d="M324.2 62.2C324.2 63.9673 325.632 65.4 327.4 65.4C329.167 65.4 330.6 63.9673 330.6 62.2C330.6 60.4327 329.167 59 327.4 59C325.632 59 324.2 60.4327 324.2 62.2Z" fill="#0A050C"/>
<path d="M288.999 62.2C288.999 63.6912 290.208 64.9 291.699 64.9C293.191 64.9 294.399 63.6912 294.399 62.2C294.399 60.7088 293.191 59.5 291.699 59.5C290.208 59.5 288.999 60.7088 288.999 62.2Z" fill="#0A050C"/>
<path d="M252.8 62.2001C252.8 63.9122 254.187 65.3001 255.9 65.3001C257.612 65.3001 259 63.9122 259 62.2001C259 60.488 257.612 59.1001 255.9 59.1001C254.187 59.1001 252.8 60.488 252.8 62.2001Z" fill="#0A050C"/>
<path d="M216.2 62.2002C216.2 64.4093 217.991 66.2002 220.2 66.2002C222.409 66.2002 224.2 64.4093 224.2 62.2002C224.2 59.9911 222.409 58.2002 220.2 58.2002C217.991 58.2002 216.2 59.9911 216.2 62.2002Z" fill="#0A050C"/>
<path d="M179.3 62.2C179.3 65.0719 181.628 67.4 184.5 67.4C187.372 67.4 189.7 65.0719 189.7 62.2C189.7 59.3281 187.372 57 184.5 57C181.628 57 179.3 59.3281 179.3 62.2Z" fill="#0A050C"/>
<path d="M143.5 62.1998C143.5 64.6299 145.47 66.5998 147.9 66.5998C150.33 66.5998 152.3 64.6299 152.3 62.1998C152.3 59.7698 150.33 57.7998 147.9 57.7998C145.47 57.7998 143.5 59.7698 143.5 62.1998Z" fill="#0A050C"/>
<path d="M108.7 62.2002C108.7 64.1332 110.267 65.7002 112.2 65.7002C114.133 65.7002 115.7 64.1332 115.7 62.2002C115.7 60.2672 114.133 58.7002 112.2 58.7002C110.267 58.7002 108.7 60.2672 108.7 62.2002Z" fill="#0A050C"/>
<path d="M73.2997 62.2C73.2997 63.9673 74.7324 65.4 76.4997 65.4C78.267 65.4 79.6997 63.9673 79.6997 62.2C79.6997 60.4327 78.267 59 76.4997 59C74.7324 59 73.2997 60.4327 73.2997 62.2Z" fill="#0A050C"/>
<path d="M36.9999 62.2C36.9999 64.2435 38.6565 65.9 40.6999 65.9C42.7434 65.9 44.3999 64.2435 44.3999 62.2C44.3999 60.1565 42.7434 58.5 40.6999 58.5C38.6565 58.5 36.9999 60.1565 36.9999 62.2Z" fill="#0A050C"/>
<path d="M0.299713 62.2C0.299713 64.7957 2.40396 66.9 4.99969 66.9C7.59543 66.9 9.69971 64.7957 9.69971 62.2C9.69971 59.6043 7.59543 57.5 4.99969 57.5C2.40396 57.5 0.299713 59.6043 0.299713 62.2Z" fill="#0A050C"/>
</g>
<g clip-path="url(#clip2)">
<path d="M324.9 118.2C324.9 119.967 326.332 121.4 328.1 121.4C329.867 121.4 331.3 119.967 331.3 118.2C331.3 116.433 329.867 115 328.1 115C326.332 115 324.9 116.433 324.9 118.2Z" fill="#0A050C"/>
<path d="M289.7 118.2C289.7 119.691 290.908 120.9 292.4 120.9C293.891 120.9 295.1 119.691 295.1 118.2C295.1 116.709 293.891 115.5 292.4 115.5C290.908 115.5 289.7 116.709 289.7 118.2Z" fill="#0A050C"/>
<path d="M253.5 118.2C253.5 119.912 254.888 121.3 256.6 121.3C258.312 121.3 259.7 119.912 259.7 118.2C259.7 116.488 258.312 115.1 256.6 115.1C254.888 115.1 253.5 116.488 253.5 118.2Z" fill="#0A050C"/>
<path d="M216.9 118.2C216.9 120.409 218.691 122.2 220.9 122.2C223.109 122.2 224.9 120.409 224.9 118.2C224.9 115.991 223.109 114.2 220.9 114.2C218.691 114.2 216.9 115.991 216.9 118.2Z" fill="#0A050C"/>
<path d="M180 118.2C180 121.072 182.328 123.4 185.2 123.4C188.072 123.4 190.4 121.072 190.4 118.2C190.4 115.328 188.072 113 185.2 113C182.328 113 180 115.328 180 118.2Z" fill="#0A050C"/>
<path d="M144.2 118.2C144.2 120.63 146.17 122.6 148.6 122.6C151.03 122.6 153 120.63 153 118.2C153 115.77 151.03 113.8 148.6 113.8C146.17 113.8 144.2 115.77 144.2 118.2Z" fill="#0A050C"/>
<path d="M109.4 118.2C109.4 120.133 110.967 121.7 112.9 121.7C114.833 121.7 116.4 120.133 116.4 118.2C116.4 116.267 114.833 114.7 112.9 114.7C110.967 114.7 109.4 116.267 109.4 118.2Z" fill="#0A050C"/>
<path d="M73.9999 118.2C73.9999 119.967 75.4326 121.4 77.1999 121.4C78.9672 121.4 80.3999 119.967 80.3999 118.2C80.3999 116.433 78.9672 115 77.1999 115C75.4326 115 73.9999 116.433 73.9999 118.2Z" fill="#0A050C"/>
<path d="M37.7001 118.2C37.7001 120.243 39.3567 121.9 41.4001 121.9C43.4436 121.9 45.1001 120.243 45.1001 118.2C45.1001 116.157 43.4436 114.5 41.4001 114.5C39.3567 114.5 37.7001 116.157 37.7001 118.2Z" fill="#0A050C"/>
<path d="M0.999908 118.2C0.999908 120.796 3.10415 122.9 5.69989 122.9C8.29563 122.9 10.3999 120.796 10.3999 118.2C10.3999 115.604 8.29563 113.5 5.69989 113.5C3.10415 113.5 0.999908 115.604 0.999908 118.2Z" fill="#0A050C"/>
</g>
<defs>
<clipPath id="clip0">
<rect width="10.5" height="330.3" fill="white" transform="translate(330.3 0.631348) rotate(90)"/>
</clipPath>
<clipPath id="clip1">
<rect width="10.5" height="330.3" fill="white" transform="translate(330.6 57) rotate(90)"/>
</clipPath>
<clipPath id="clip2">
<rect width="10.5" height="330.3" fill="white" transform="translate(331.3 113) rotate(90)"/>
</clipPath>
</defs>
</svg>
