<svg width="247" height="268" viewBox="0 0 247 268" fill="none" xmlns="http://www.w3.org/2000/svg">
<g clip-path="url(#clip0)">
<path d="M237.51 161.004C237.51 158.319 235.337 156.144 232.657 156.144C229.977 156.144 227.804 158.319 227.804 161.004C227.804 163.688 229.977 165.864 232.657 165.864C235.337 165.864 237.51 163.688 237.51 161.004Z" fill="#020101"/>
<path d="M153.677 6.27847C153.677 3.59439 151.505 1.41852 148.825 1.41852C146.145 1.41852 143.972 3.59439 143.972 6.27847C143.972 8.96256 146.145 11.1384 148.825 11.1384C151.505 11.1384 153.677 8.96256 153.677 6.27847Z" fill="#020101"/>
<path d="M46.2258 45.6046C46.2258 42.9205 44.0532 40.7447 41.3732 40.7447C38.6931 40.7447 36.5205 42.9205 36.5205 45.6046C36.5205 48.2887 38.6931 50.4646 41.3732 50.4646C44.0532 50.4646 46.2258 48.2887 46.2258 45.6046Z" fill="#020101"/>
<path d="M19.8332 211.488C19.8332 208.804 17.6606 206.628 14.9806 206.628C12.3005 206.628 10.1279 208.804 10.1279 211.488C10.1279 214.172 12.3005 216.348 14.9806 216.348C17.6606 216.348 19.8332 214.172 19.8332 211.488Z" fill="#020101"/>
<path d="M88.6619 244.416C88.6619 241.732 86.4892 239.556 83.8092 239.556C81.1292 239.556 78.9565 241.732 78.9565 244.416C78.9565 247.1 81.1292 249.276 83.8092 249.276C86.4892 249.276 88.6619 247.1 88.6619 244.416Z" fill="#020101"/>
<path d="M155.658 22.148C155.658 22.3463 155.609 22.5447 155.559 22.7431C155.213 23.7845 154.074 24.3796 153.034 24.0324C123.67 14.7589 92.4747 17.4368 65.1909 31.6695C62.814 32.9093 60.4867 34.1987 58.2585 35.5872C57.3177 36.1823 56.0797 35.8848 55.4855 34.893C54.8913 33.9507 55.1884 32.7109 56.1788 32.1158C58.5061 30.6777 60.9324 29.3387 63.3587 28.0493C91.6329 13.3207 123.918 10.5436 154.272 20.1643C155.114 20.5115 155.658 21.3049 155.658 22.148Z" fill="#020101"/>
<path d="M223.298 190.213C223.298 190.56 223.199 190.858 223.05 191.155C211.711 212.083 194.479 228.994 173.286 240.052C153.38 250.417 131.098 254.93 108.864 253.145C107.775 253.045 106.933 252.103 107.032 250.963C107.131 249.872 108.072 249.028 109.211 249.128C130.701 250.863 152.241 246.499 171.503 236.482C192.003 225.82 208.592 209.504 219.584 189.271C220.129 188.279 221.317 187.932 222.308 188.477C222.951 188.825 223.298 189.519 223.298 190.213Z" fill="#020101"/>
<path d="M60.5856 235.143C60.5856 235.49 60.4866 235.837 60.338 236.135C59.7933 237.077 58.5554 237.424 57.5651 236.878C47.7607 231.175 38.7982 224.183 30.9745 216.05C29.7366 214.81 0.373048 184.708 0.373048 133.48C0.373048 132.389 1.26435 131.447 2.40324 131.447C3.54213 131.447 4.43343 132.34 4.43343 133.48C4.43343 182.973 33.5989 212.975 33.8465 213.273C41.4226 221.158 50.088 227.952 59.5953 233.457C60.239 233.804 60.5856 234.448 60.5856 235.143Z" fill="#020101"/>
<path d="M246.373 179.65C246.373 179.848 246.324 180.096 246.274 180.295C242.709 190.808 238.896 196.858 238.351 197.652C233.004 207.62 225.972 216.992 217.455 225.522C193.539 249.475 166.156 259.096 164.967 259.492C115.599 277.891 59.8925 265.394 23.052 227.605C22.2597 226.812 22.3092 225.522 23.1015 224.729C23.8937 223.935 25.1812 223.985 25.9735 224.778C61.6256 261.426 115.698 273.576 163.63 255.674C163.928 255.575 191.409 245.904 214.583 222.646C222.853 214.364 229.686 205.289 234.836 195.619L234.935 195.47C234.984 195.42 238.847 189.519 242.461 178.956C242.808 177.914 243.947 177.319 245.036 177.716C245.878 178.014 246.373 178.807 246.373 179.65Z" fill="#020101"/>
<path d="M133.326 3.50158C133.326 3.55117 133.326 3.65034 133.326 3.69993C133.227 4.79094 132.236 5.63401 131.147 5.48524C111.489 3.55117 92.0287 6.08031 73.3608 13.0231C52.8113 20.7098 34.49 33.5043 20.3282 50.0679C20.1301 50.2662 11.8113 58.8951 4.23517 75.1611C3.78952 76.1529 2.5516 76.5993 1.56126 76.1529C0.570923 75.7066 0.125271 74.4668 0.570923 73.475C8.44411 56.5148 17.0105 47.6875 17.3572 47.3403C31.8656 30.3305 50.7811 17.1392 71.9248 9.25417C91.1869 2.06342 111.192 -0.564925 131.494 1.46832C132.583 1.61709 133.326 2.50976 133.326 3.50158Z" fill="#020101"/>
</g>
<defs>
<clipPath id="clip0">
<rect width="267" height="246" fill="white" transform="translate(0.373047 267.873) rotate(-90)"/>
</clipPath>
</defs>
</svg>
