<svg width="183" height="192" viewBox="0 0 183 192" fill="none" xmlns="http://www.w3.org/2000/svg">
<g clip-path="url(#clip0)">
<path d="M177.6 75.277C175.796 75.277 174.334 76.7302 174.334 78.5228C174.334 80.3154 175.796 81.7686 177.6 81.7686C179.403 81.7686 180.865 80.3154 180.865 78.5228C180.865 76.7302 179.403 75.277 177.6 75.277Z" fill="#0A050C"/>
<path d="M177.599 39.1366C176.038 39.1366 174.773 40.3941 174.773 41.9454C174.773 43.4967 176.038 44.7543 177.599 44.7543C179.16 44.7543 180.425 43.4967 180.425 41.9454C180.425 40.3941 179.16 39.1366 177.599 39.1366Z" fill="#0A050C"/>
<path d="M177.599 7.58218e-05C174.616 7.5561e-05 172.198 2.40341 172.198 5.36808C172.198 8.33274 174.616 10.7361 177.599 10.7361C180.582 10.7361 183 8.33274 183 5.36808C183 2.40342 180.582 7.60826e-05 177.599 7.58218e-05Z" fill="#0A050C"/>
<path d="M177.599 185.384C175.761 185.384 174.271 186.865 174.271 188.692C174.271 190.519 175.761 192 177.599 192C179.438 192 180.928 190.519 180.928 188.692C180.928 186.865 179.438 185.384 177.599 185.384Z" fill="#0A050C"/>
<path d="M177.599 148.369C175.518 148.369 173.831 150.046 173.831 152.114C173.831 154.183 175.518 155.859 177.599 155.859C179.68 155.859 181.367 154.183 181.367 152.114C181.367 150.046 179.68 148.369 177.599 148.369Z" fill="#0A050C"/>
<path d="M177.599 110.793C174.928 110.793 172.763 112.945 172.763 115.6C172.763 118.254 174.928 120.406 177.599 120.406C180.27 120.406 182.435 118.254 182.435 115.6C182.435 112.945 180.27 110.793 177.599 110.793Z" fill="#0A050C"/>
<path d="M143.436 74.6528C141.286 74.6528 139.542 76.3854 139.542 78.5228C139.542 80.6601 141.286 82.3927 143.436 82.3927C145.586 82.3927 147.33 80.6601 147.33 78.5228C147.33 76.3854 145.586 74.6528 143.436 74.6528Z" fill="#0A050C"/>
<path d="M143.436 38.8869C141.736 38.8869 140.359 40.2562 140.359 41.9454C140.359 43.6346 141.736 45.0039 143.436 45.0039C145.135 45.0039 146.513 43.6346 146.513 41.9454C146.513 40.2562 145.135 38.8869 143.436 38.8869Z" fill="#0A050C"/>
<path d="M143.436 1.56047C141.32 1.56047 139.605 3.26516 139.605 5.368C139.605 7.47084 141.32 9.17554 143.436 9.17554C145.551 9.17554 147.267 7.47084 147.267 5.368C147.267 3.26516 145.551 1.56047 143.436 1.56047Z" fill="#0A050C"/>
<path d="M143.436 110.793C140.765 110.793 138.6 112.945 138.6 115.6C138.6 118.254 140.765 120.406 143.436 120.406C146.107 120.406 148.271 118.254 148.271 115.6C148.271 112.945 146.107 110.793 143.436 110.793Z" fill="#0A050C"/>
<path d="M109.084 74.6528C106.934 74.6528 105.191 76.3854 105.191 78.5227C105.191 80.6601 106.934 82.3927 109.084 82.3927C111.235 82.3927 112.978 80.6601 112.978 78.5227C112.978 76.3854 111.235 74.6528 109.084 74.6528Z" fill="#0A050C"/>
<path d="M109.084 38.8244C107.35 38.8244 105.944 40.2217 105.944 41.9454C105.944 43.669 107.35 45.0663 109.084 45.0663C110.818 45.0663 112.224 43.669 112.224 41.9454C112.224 40.2217 110.818 38.8244 109.084 38.8244Z" fill="#0A050C"/>
<path d="M109.084 1.06119C106.691 1.06119 104.751 2.98944 104.751 5.36806C104.751 7.74668 106.691 9.67493 109.084 9.67493C111.477 9.67493 113.417 7.74668 113.417 5.36806C113.417 2.98944 111.477 1.06119 109.084 1.06119Z" fill="#0A050C"/>
<path d="M109.084 149.056C107.384 149.056 106.007 150.425 106.007 152.114C106.007 153.804 107.384 155.173 109.084 155.173C110.783 155.173 112.161 153.804 112.161 152.114C112.161 150.425 110.783 149.056 109.084 149.056Z" fill="#0A050C"/>
<path d="M109.084 111.73C106.934 111.73 105.19 113.462 105.19 115.6C105.19 117.737 106.934 119.469 109.084 119.469C111.234 119.469 112.978 117.737 112.978 115.6C112.978 113.462 111.234 111.73 109.084 111.73Z" fill="#0A050C"/>
<path d="M75.6113 73.342C72.7326 73.342 70.3989 75.6615 70.3989 78.5227C70.3989 81.384 72.7326 83.7035 75.6113 83.7035C78.49 83.7035 80.8237 81.384 80.8237 78.5227C80.8237 75.6615 78.49 73.342 75.6113 73.342Z" fill="#0A050C"/>
<path d="M75.6115 37.8257C73.3224 37.8257 71.4667 39.6701 71.4667 41.9453C71.4667 44.2205 73.3224 46.0649 75.6115 46.0649C77.9006 46.0649 79.7563 44.2205 79.7563 41.9453C79.7563 39.6701 77.9006 37.8257 75.6115 37.8257Z" fill="#0A050C"/>
<path d="M75.6113 0.18724C72.7326 0.18724 70.3989 2.50673 70.3989 5.36797C70.3989 8.22922 72.7326 10.5487 75.6113 10.5487C78.49 10.5487 80.8237 8.22922 80.8237 5.36797C80.8237 2.50673 78.49 0.18724 75.6113 0.18724Z" fill="#0A050C"/>
<path d="M75.6118 111.73C73.4614 111.73 71.7181 113.462 71.7181 115.6C71.7181 117.737 73.4614 119.469 75.6118 119.469C77.7621 119.469 79.5054 117.737 79.5054 115.6C79.5054 113.462 77.7621 111.73 75.6118 111.73Z" fill="#0A050C"/>
<path d="M3.89348 111.854C1.7431 111.854 -0.000121068 113.587 -0.000121255 115.724C-0.000121442 117.862 1.7431 119.594 3.89348 119.594C6.04387 119.594 7.78711 117.862 7.78711 115.724C7.78711 113.587 6.04387 111.854 3.89348 111.854Z" fill="#0A050C"/>
<path d="M3.89367 149.118C2.15948 149.118 0.753647 150.516 0.753647 152.239C0.753647 153.963 2.15948 155.36 3.89367 155.36C5.62786 155.36 7.03369 153.963 7.03369 152.239C7.03369 150.516 5.62786 149.118 3.89367 149.118Z" fill="#0A050C"/>
<path d="M3.89341 185.945C2.29796 185.945 1.00461 187.231 1.00461 188.817C1.00461 190.402 2.29796 191.688 3.89341 191.688C5.48886 191.688 6.78223 190.402 6.78223 188.817C6.78223 187.231 5.48886 185.945 3.89341 185.945Z" fill="#0A050C"/>
<path d="M3.8936 1.74768C1.81258 1.74768 0.12558 3.42443 0.12558 5.4928C0.12558 7.56117 1.81258 9.23791 3.8936 9.23791C5.97462 9.23791 7.66162 7.56117 7.66162 5.4928C7.66162 3.42443 5.97462 1.74768 3.8936 1.74768Z" fill="#0A050C"/>
<path d="M3.89345 39.0117C2.19394 39.0117 0.816224 40.3811 0.816223 42.0703C0.816223 43.7594 2.19394 45.1288 3.89345 45.1288C5.59296 45.1288 6.9707 43.7594 6.9707 42.0703C6.9707 40.3811 5.59296 39.0117 3.89345 39.0117Z" fill="#0A050C"/>
<path d="M3.89348 74.7776C1.7431 74.7776 -0.000121068 76.5103 -0.000121255 78.6476C-0.000121442 80.7849 1.7431 82.5176 3.89348 82.5176C6.04387 82.5176 7.78711 80.7849 7.78711 78.6476C7.78711 76.5103 6.04387 74.7776 3.89348 74.7776Z" fill="#0A050C"/>
<path d="M37.3662 110.544C34.4875 110.544 32.1538 112.863 32.1538 115.724C32.1538 118.586 34.4875 120.905 37.3662 120.905C40.2449 120.905 42.5786 118.586 42.5786 115.724C42.5786 112.863 40.2449 110.544 37.3662 110.544Z" fill="#0A050C"/>
<path d="M37.3664 148.12C35.0773 148.12 33.2216 149.964 33.2216 152.239C33.2216 154.514 35.0773 156.359 37.3664 156.359C39.6555 156.359 41.5112 154.514 41.5112 152.239C41.5112 149.964 39.6555 148.12 37.3664 148.12Z" fill="#0A050C"/>
<path d="M37.3661 1.47757e-05C34.314 1.45088e-05 31.8397 2.45926 31.8397 5.49288C31.8397 8.52649 34.314 10.9857 37.3661 10.9857C40.4183 10.9857 42.8926 8.52649 42.8926 5.49288C42.8926 2.45926 40.4183 1.50425e-05 37.3661 1.47757e-05Z" fill="#0A050C"/>
<path d="M37.366 38.8868C35.5972 38.8868 34.1632 40.3121 34.1632 42.0702C34.1632 43.8283 35.5972 45.2535 37.366 45.2535C39.1349 45.2535 40.5688 43.8283 40.5688 42.0702C40.5688 40.3121 39.1349 38.8868 37.366 38.8868Z" fill="#0A050C"/>
<path d="M37.3662 74.7776C35.2158 74.7776 33.4725 76.5103 33.4725 78.6476C33.4725 80.7849 35.2158 82.5176 37.3662 82.5176C39.5165 82.5176 41.2598 80.7849 41.2598 78.6476C41.2598 76.5103 39.5165 74.7776 37.3662 74.7776Z" fill="#0A050C"/>
</g>
<defs>
<clipPath id="clip0">
<rect width="183" height="192" fill="white" transform="translate(183 192) rotate(-180)"/>
</clipPath>
</defs>
</svg>
