<svg width="185" height="196" viewBox="0 0 185 196" fill="none" xmlns="http://www.w3.org/2000/svg">
<g clip-path="url(#clip0)">
<path d="M5.45951 119.155C7.28277 119.155 8.76081 117.671 8.76081 115.841C8.76081 114.011 7.28277 112.528 5.45951 112.528C3.63625 112.528 2.1582 114.011 2.1582 115.841C2.1582 117.671 3.63625 119.155 5.45951 119.155Z" fill="#ECBE5E"/>
<path d="M5.45944 156.048C7.03726 156.048 8.31633 154.764 8.31633 153.181C8.31633 151.597 7.03726 150.313 5.45944 150.313C3.88162 150.313 2.60254 151.597 2.60254 153.181C2.60254 154.764 3.88162 156.048 5.45944 156.048Z" fill="#ECBE5E"/>
<path d="M5.45985 196C8.47524 196 10.9197 193.547 10.9197 190.52C10.9197 187.494 8.47524 185.04 5.45985 185.04C2.44446 185.04 0 187.494 0 190.52C0 193.547 2.44446 196 5.45985 196Z" fill="#ECBE5E"/>
<path d="M5.45952 6.75423C7.31784 6.75423 8.82431 5.24224 8.82431 3.37711C8.82431 1.51199 7.31784 0 5.45952 0C3.60119 0 2.09473 1.51199 2.09473 3.37711C2.09473 5.24224 3.60119 6.75423 5.45952 6.75423Z" fill="#ECBE5E"/>
<path d="M5.45959 44.5396C7.56335 44.5396 9.26878 42.8279 9.26878 40.7165C9.26878 38.605 7.56335 36.8933 5.45959 36.8933C3.35583 36.8933 1.65039 38.605 1.65039 40.7165C1.65039 42.8279 3.35583 44.5396 5.45959 44.5396Z" fill="#ECBE5E"/>
<path d="M5.45976 82.8987C8.15959 82.8987 10.3482 80.702 10.3482 77.9923C10.3482 75.2826 8.15959 73.0859 5.45976 73.0859C2.75993 73.0859 0.571289 75.2826 0.571289 77.9923C0.571289 80.702 2.75993 82.8987 5.45976 82.8987Z" fill="#ECBE5E"/>
<path d="M39.9967 119.792C42.1706 119.792 43.9329 118.023 43.9329 115.841C43.9329 113.66 42.1706 111.891 39.9967 111.891C37.8228 111.891 36.0605 113.66 36.0605 115.841C36.0605 118.023 37.8228 119.792 39.9967 119.792Z" fill="#ECBE5E"/>
<path d="M39.9966 156.303C41.7147 156.303 43.1074 154.905 43.1074 153.181C43.1074 151.456 41.7147 150.059 39.9966 150.059C38.2785 150.059 36.8857 151.456 36.8857 153.181C36.8857 154.905 38.2785 156.303 39.9966 156.303Z" fill="#ECBE5E"/>
<path d="M39.9967 194.407C42.1355 194.407 43.8694 192.667 43.8694 190.52C43.8694 188.374 42.1355 186.633 39.9967 186.633C37.8579 186.633 36.124 188.374 36.124 190.52C36.124 192.667 37.8579 194.407 39.9967 194.407Z" fill="#ECBE5E"/>
<path d="M39.9969 82.8987C42.6967 82.8987 44.8853 80.702 44.8853 77.9923C44.8853 75.2826 42.6967 73.0859 39.9969 73.0859C37.297 73.0859 35.1084 75.2826 35.1084 77.9923C35.1084 80.702 37.297 82.8987 39.9969 82.8987Z" fill="#ECBE5E"/>
<path d="M74.7233 119.792C76.8972 119.792 78.6595 118.023 78.6595 115.841C78.6595 113.66 76.8972 111.891 74.7233 111.891C72.5494 111.891 70.7871 113.66 70.7871 115.841C70.7871 118.023 72.5494 119.792 74.7233 119.792Z" fill="#ECBE5E"/>
<path d="M74.7232 156.367C76.4763 156.367 77.8975 154.94 77.8975 153.181C77.8975 151.421 76.4763 149.995 74.7232 149.995C72.97 149.995 71.5488 151.421 71.5488 153.181C71.5488 154.94 72.97 156.367 74.7232 156.367Z" fill="#ECBE5E"/>
<path d="M74.7233 194.917C77.1427 194.917 79.1039 192.948 79.1039 190.52C79.1039 188.092 77.1427 186.124 74.7233 186.124C72.304 186.124 70.3428 188.092 70.3428 190.52C70.3428 192.948 72.304 194.917 74.7233 194.917Z" fill="#ECBE5E"/>
<path d="M74.7231 43.8387C76.4412 43.8387 77.834 42.4408 77.834 40.7165C77.834 38.9921 76.4412 37.5942 74.7231 37.5942C73.0051 37.5942 71.6123 38.9921 71.6123 40.7165C71.6123 42.4408 73.0051 43.8387 74.7231 43.8387Z" fill="#ECBE5E"/>
<path d="M74.7233 81.9427C76.8972 81.9427 78.6594 80.174 78.6594 77.9921C78.6594 75.8102 76.8972 74.0415 74.7233 74.0415C72.5494 74.0415 70.7871 75.8102 70.7871 77.9921C70.7871 80.174 72.5494 81.9427 74.7233 81.9427Z" fill="#ECBE5E"/>
<path d="M108.562 121.13C111.473 121.13 113.832 118.762 113.832 115.841C113.832 112.921 111.473 110.553 108.562 110.553C105.652 110.553 103.293 112.921 103.293 115.841C103.293 118.762 105.652 121.13 108.562 121.13Z" fill="#ECBE5E"/>
<path d="M108.562 157.386C110.876 157.386 112.752 155.503 112.752 153.181C112.752 150.858 110.876 148.975 108.562 148.975C106.248 148.975 104.372 150.858 104.372 153.181C104.372 155.503 106.248 157.386 108.562 157.386Z" fill="#ECBE5E"/>
<path d="M108.562 195.809C111.473 195.809 113.832 193.441 113.832 190.52C113.832 187.599 111.473 185.231 108.562 185.231C105.652 185.231 103.293 187.599 103.293 190.52C103.293 193.441 105.652 195.809 108.562 195.809Z" fill="#ECBE5E"/>
<path d="M108.562 81.9427C110.736 81.9427 112.498 80.174 112.498 77.9921C112.498 75.8102 110.736 74.0415 108.562 74.0415C106.388 74.0415 104.626 75.8102 104.626 77.9921C104.626 80.174 106.388 81.9427 108.562 81.9427Z" fill="#ECBE5E"/>
<path d="M181.064 81.8152C183.238 81.8152 185 80.0465 185 77.8646C185 75.6828 183.238 73.9141 181.064 73.9141C178.89 73.9141 177.128 75.6828 177.128 77.8646C177.128 80.0465 178.89 81.8152 181.064 81.8152Z" fill="#ECBE5E"/>
<path d="M181.064 43.775C182.817 43.775 184.238 42.3486 184.238 40.589C184.238 38.8295 182.817 37.4031 181.064 37.4031C179.311 37.4031 177.89 38.8295 177.89 40.589C177.89 42.3486 179.311 43.775 181.064 43.775Z" fill="#ECBE5E"/>
<path d="M181.064 6.18076C182.677 6.18076 183.984 4.86847 183.984 3.24968C183.984 1.63089 182.677 0.318604 181.064 0.318604C179.451 0.318604 178.144 1.63089 178.144 3.24968C178.144 4.86847 179.451 6.18076 181.064 6.18076Z" fill="#ECBE5E"/>
<path d="M181.064 194.216C183.168 194.216 184.873 192.504 184.873 190.393C184.873 188.281 183.168 186.57 181.064 186.57C178.96 186.57 177.255 188.281 177.255 190.393C177.255 192.504 178.96 194.216 181.064 194.216Z" fill="#ECBE5E"/>
<path d="M181.064 156.176C182.782 156.176 184.175 154.778 184.175 153.053C184.175 151.329 182.782 149.931 181.064 149.931C179.346 149.931 177.953 151.329 177.953 153.053C177.953 154.778 179.346 156.176 181.064 156.176Z" fill="#ECBE5E"/>
<path d="M181.064 119.665C183.238 119.665 185 117.896 185 115.714C185 113.532 183.238 111.763 181.064 111.763C178.89 111.763 177.128 113.532 177.128 115.714C177.128 117.896 178.89 119.665 181.064 119.665Z" fill="#ECBE5E"/>
<path d="M147.225 83.1533C150.136 83.1533 152.495 80.7855 152.495 77.8646C152.495 74.9438 150.136 72.5759 147.225 72.5759C144.315 72.5759 141.956 74.9438 141.956 77.8646C141.956 80.7855 144.315 83.1533 147.225 83.1533Z" fill="#ECBE5E"/>
<path d="M147.225 44.7945C149.539 44.7945 151.415 42.9116 151.415 40.589C151.415 38.2664 149.539 36.3835 147.225 36.3835C144.911 36.3835 143.035 38.2664 143.035 40.589C143.035 42.9116 144.911 44.7945 147.225 44.7945Z" fill="#ECBE5E"/>
<path d="M147.225 196C150.311 196 152.812 193.49 152.812 190.393C152.812 187.296 150.311 184.786 147.225 184.786C144.14 184.786 141.639 187.296 141.639 190.393C141.639 193.49 144.14 196 147.225 196Z" fill="#ECBE5E"/>
<path d="M147.225 156.303C149.013 156.303 150.463 154.848 150.463 153.053C150.463 151.259 149.013 149.804 147.225 149.804C145.437 149.804 143.987 151.259 143.987 153.053C143.987 154.848 145.437 156.303 147.225 156.303Z" fill="#ECBE5E"/>
<path d="M147.225 119.665C149.399 119.665 151.161 117.896 151.161 115.714C151.161 113.532 149.399 111.763 147.225 111.763C145.051 111.763 143.289 113.532 143.289 115.714C143.289 117.896 145.051 119.665 147.225 119.665Z" fill="#ECBE5E"/>
</g>
<defs>
<clipPath id="clip0">
<rect width="185" height="196" fill="white"/>
</clipPath>
</defs>
</svg>
