<svg width="20" height="20" viewBox="0 0 20 20" fill="none" xmlns="http://www.w3.org/2000/svg">
<path d="M14.5859 0H5.41406C2.42969 0 0 2.42969 0 5.41406V14.5859C0 17.5703 2.42969 20 5.41406 20H14.5859C17.5703 20 20 17.5703 20 14.5859V5.41406C20 2.42969 17.5703 0 14.5859 0ZM18.8281 14.5859C18.8281 16.9258 16.9258 18.8281 14.5859 18.8281H5.41406C3.07422 18.8281 1.17188 16.9258 1.17188 14.5859V5.41406C1.17188 3.07422 3.07422 1.17188 5.41406 1.17188H14.5859C16.9258 1.17188 18.8281 3.07422 18.8281 5.41406V14.5859Z" fill="white"/>
<path d="M10 4.53125C6.98438 4.53125 4.53125 6.98438 4.53125 10C4.53125 13.0156 6.98438 15.4688 10 15.4688C13.0156 15.4688 15.4688 13.0156 15.4688 10C15.4688 6.98438 13.0156 4.53125 10 4.53125ZM10 14.2969C7.63281 14.2969 5.70312 12.3711 5.70312 10C5.70312 7.63281 7.62891 5.70312 10 5.70312C12.3672 5.70312 14.2969 7.62891 14.2969 10C14.2969 12.3672 12.3672 14.2969 10 14.2969Z" fill="white"/>
<path d="M15.5977 2.58984C14.707 2.58984 13.9805 3.31641 13.9805 4.20703C13.9805 5.09766 14.707 5.82422 15.5977 5.82422C16.4883 5.82422 17.2148 5.09766 17.2148 4.20703C17.2148 3.31641 16.4922 2.58984 15.5977 2.58984ZM15.5977 4.64844C15.3516 4.64844 15.1523 4.44922 15.1523 4.20312C15.1523 3.95703 15.3516 3.75781 15.5977 3.75781C15.8438 3.75781 16.043 3.95703 16.043 4.20312C16.043 4.44922 15.8438 4.64844 15.5977 4.64844Z" fill="white"/>
</svg>
