<svg width="124" height="374" viewBox="0 0 124 374" fill="none" xmlns="http://www.w3.org/2000/svg">
<path d="M5.87788 9.34446C7.87557 9.34446 9.49502 7.7315 9.49502 5.74181C9.49502 3.75212 7.87557 2.13916 5.87788 2.13916C3.88019 2.13916 2.26074 3.75212 2.26074 5.74181C2.26074 7.7315 3.88019 9.34446 5.87788 9.34446Z" fill="#0A050C"/>
<path d="M5.87764 48.9735C7.5632 48.9735 8.9296 47.6126 8.9296 45.9338C8.9296 44.255 7.5632 42.894 5.87764 42.894C4.19209 42.894 2.82568 44.255 2.82568 45.9338C2.82568 47.6126 4.19209 48.9735 5.87764 48.9735Z" fill="#0A050C"/>
<path d="M5.87764 89.6159C7.8129 89.6159 9.38174 88.0533 9.38174 86.1258C9.38174 84.1983 7.8129 82.6357 5.87764 82.6357C3.94237 82.6357 2.37354 84.1983 2.37354 86.1258C2.37354 88.0533 3.94237 89.6159 5.87764 89.6159Z" fill="#0A050C"/>
<path d="M5.87787 130.934C8.37498 130.934 10.3993 128.918 10.3993 126.431C10.3993 123.943 8.37498 121.927 5.87787 121.927C3.38075 121.927 1.35645 123.943 1.35645 126.431C1.35645 128.918 3.38075 130.934 5.87787 130.934Z" fill="#0A050C"/>
<path d="M5.87785 172.477C9.12409 172.477 11.7557 169.856 11.7557 166.623C11.7557 163.389 9.12409 160.768 5.87785 160.768C2.6316 160.768 0 163.389 0 166.623C0 169.856 2.6316 172.477 5.87785 172.477Z" fill="#0A050C"/>
<path d="M43.4057 10.0199C45.778 10.0199 47.7011 8.10452 47.7011 5.74177C47.7011 3.37901 45.778 1.46362 43.4057 1.46362C41.0334 1.46362 39.1104 3.37901 39.1104 5.74177C39.1104 8.10452 41.0334 10.0199 43.4057 10.0199Z" fill="#0A050C"/>
<path d="M43.4057 49.3114C45.2785 49.3114 46.7968 47.7992 46.7968 45.9339C46.7968 44.0685 45.2785 42.5564 43.4057 42.5564C41.5329 42.5564 40.0146 44.0685 40.0146 45.9339C40.0146 47.7992 41.5329 49.3114 43.4057 49.3114Z" fill="#0A050C"/>
<path d="M43.4057 89.053C45.0289 89.053 46.3447 87.7425 46.3447 86.1259C46.3447 84.5093 45.0289 83.1987 43.4057 83.1987C41.7826 83.1987 40.4668 84.5093 40.4668 86.1259C40.4668 87.7425 41.7826 89.053 43.4057 89.053Z" fill="#0A050C"/>
<path d="M43.406 129.695C45.2164 129.695 46.684 128.234 46.684 126.43C46.684 124.627 45.2164 123.166 43.406 123.166C41.5956 123.166 40.1279 124.627 40.1279 126.43C40.1279 128.234 41.5956 129.695 43.406 129.695Z" fill="#0A050C"/>
<path d="M43.406 170.788C45.7158 170.788 47.5883 168.923 47.5883 166.623C47.5883 164.322 45.7158 162.457 43.406 162.457C41.0961 162.457 39.2236 164.322 39.2236 166.623C39.2236 168.923 41.0961 170.788 43.406 170.788Z" fill="#0A050C"/>
<path d="M81.1596 10.0199C83.5319 10.0199 85.455 8.10452 85.455 5.74177C85.455 3.37901 83.5319 1.46362 81.1596 1.46362C78.7874 1.46362 76.8643 3.37901 76.8643 5.74177C76.8643 8.10452 78.7874 10.0199 81.1596 10.0199Z" fill="#0A050C"/>
<path d="M81.1596 49.3114C83.0325 49.3114 84.5507 47.7992 84.5507 45.9339C84.5507 44.0685 83.0325 42.5564 81.1596 42.5564C79.2868 42.5564 77.7686 44.0685 77.7686 45.9339C77.7686 47.7992 79.2868 49.3114 81.1596 49.3114Z" fill="#0A050C"/>
<path d="M81.1591 89.2783C82.9071 89.2783 84.3241 87.8669 84.3241 86.126C84.3241 84.385 82.9071 82.9736 81.1591 82.9736C79.4112 82.9736 77.9941 84.385 77.9941 86.126C77.9941 87.8669 79.4112 89.2783 81.1591 89.2783Z" fill="#0A050C"/>
<path d="M81.1599 130.146C83.22 130.146 84.89 128.482 84.89 126.431C84.89 124.379 83.22 122.715 81.1599 122.715C79.0997 122.715 77.4297 124.379 77.4297 126.431C77.4297 128.482 79.0997 130.146 81.1599 130.146Z" fill="#0A050C"/>
<path d="M81.1596 171.351C83.7816 171.351 85.9071 169.234 85.9071 166.623C85.9071 164.011 83.7816 161.894 81.1596 161.894C78.5376 161.894 76.4121 164.011 76.4121 166.623C76.4121 169.234 78.5376 171.351 81.1596 171.351Z" fill="#0A050C"/>
<path d="M117.896 11.4834C121.079 11.4834 123.66 8.91279 123.66 5.74172C123.66 2.57066 121.079 0 117.896 0C114.712 0 112.131 2.57066 112.131 5.74172C112.131 8.91279 114.712 11.4834 117.896 11.4834Z" fill="#0A050C"/>
<path d="M117.895 50.437C120.393 50.437 122.417 48.4208 122.417 45.9337C122.417 43.4466 120.393 41.4304 117.895 41.4304C115.398 41.4304 113.374 43.4466 113.374 45.9337C113.374 48.4208 115.398 50.437 117.895 50.437Z" fill="#0A050C"/>
<path d="M117.895 90.1787C120.143 90.1787 121.965 88.3641 121.965 86.1257C121.965 83.8873 120.143 82.0728 117.895 82.0728C115.648 82.0728 113.826 83.8873 113.826 86.1257C113.826 88.3641 115.648 90.1787 117.895 90.1787Z" fill="#0A050C"/>
<path d="M117.895 130.934C120.393 130.934 122.417 128.918 122.417 126.431C122.417 123.943 120.393 121.927 117.895 121.927C115.398 121.927 113.374 123.943 113.374 126.431C113.374 128.918 115.398 130.934 117.895 130.934Z" fill="#0A050C"/>
<path d="M117.896 172.364C121.079 172.364 123.66 169.794 123.66 166.623C123.66 163.452 121.079 160.881 117.896 160.881C114.712 160.881 112.131 163.452 112.131 166.623C112.131 169.794 114.712 172.364 117.896 172.364Z" fill="#0A050C"/>
<path d="M5.87786 212.669C8.62469 212.669 10.8514 210.451 10.8514 207.715C10.8514 204.98 8.62469 202.762 5.87786 202.762C3.13104 202.762 0.904297 204.98 0.904297 207.715C0.904297 210.451 3.13104 212.669 5.87786 212.669Z" fill="#0A050C"/>
<path d="M5.87763 251.96C8.0626 251.96 9.83388 250.196 9.83388 248.02C9.83388 245.844 8.0626 244.08 5.87763 244.08C3.69266 244.08 1.92139 245.844 1.92139 248.02C1.92139 250.196 3.69266 251.96 5.87763 251.96Z" fill="#0A050C"/>
<path d="M5.87739 291.815C7.87508 291.815 9.49453 290.202 9.49453 288.212C9.49453 286.222 7.87508 284.609 5.87739 284.609C3.8797 284.609 2.26025 286.222 2.26025 288.212C2.26025 290.202 3.8797 291.815 5.87739 291.815Z" fill="#0A050C"/>
<path d="M5.87763 332.57C8.18746 332.57 10.0599 330.705 10.0599 328.404C10.0599 326.104 8.18746 324.239 5.87763 324.239C3.5678 324.239 1.69531 326.104 1.69531 328.404C1.69531 330.705 3.5678 332.57 5.87763 332.57Z" fill="#0A050C"/>
<path d="M5.87761 374C8.81172 374 11.1903 371.631 11.1903 368.709C11.1903 365.787 8.81172 363.417 5.87761 363.417C2.9435 363.417 0.564941 365.787 0.564941 368.709C0.564941 371.631 2.9435 374 5.87761 374Z" fill="#0A050C"/>
<path d="M43.4055 211.881C45.7153 211.881 47.5878 210.016 47.5878 207.715C47.5878 205.415 45.7153 203.55 43.4055 203.55C41.0956 203.55 39.2231 205.415 39.2231 207.715C39.2231 210.016 41.0956 211.881 43.4055 211.881Z" fill="#0A050C"/>
<path d="M43.4057 251.397C45.2786 251.397 46.7968 249.885 46.7968 248.02C46.7968 246.154 45.2786 244.642 43.4057 244.642C41.5329 244.642 40.0146 246.154 40.0146 248.02C40.0146 249.885 41.5329 251.397 43.4057 251.397Z" fill="#0A050C"/>
<path d="M43.4057 291.589C45.2786 291.589 46.7968 290.077 46.7968 288.212C46.7968 286.346 45.2786 284.834 43.4057 284.834C41.5329 284.834 40.0146 286.346 40.0146 288.212C40.0146 290.077 41.5329 291.589 43.4057 291.589Z" fill="#0A050C"/>
<path d="M43.4052 332.457C45.6526 332.457 47.4745 330.642 47.4745 328.404C47.4745 326.165 45.6526 324.351 43.4052 324.351C41.1578 324.351 39.3359 326.165 39.3359 328.404C39.3359 330.642 41.1578 332.457 43.4052 332.457Z" fill="#0A050C"/>
<path d="M43.4054 374C46.3396 374 48.7181 371.631 48.7181 368.708C48.7181 365.786 46.3396 363.417 43.4054 363.417C40.4713 363.417 38.0928 365.786 38.0928 368.708C38.0928 371.631 40.4713 374 43.4054 374Z" fill="#0A050C"/>
<path d="M81.1599 211.881C83.4697 211.881 85.3422 210.016 85.3422 207.715C85.3422 205.415 83.4697 203.55 81.1599 203.55C78.85 203.55 76.9775 205.415 76.9775 207.715C76.9775 210.016 78.85 211.881 81.1599 211.881Z" fill="#0A050C"/>
<path d="M81.1599 251.285C82.9703 251.285 84.4379 249.823 84.4379 248.02C84.4379 246.217 82.9703 244.755 81.1599 244.755C79.3495 244.755 77.8818 246.217 77.8818 248.02C77.8818 249.823 79.3495 251.285 81.1599 251.285Z" fill="#0A050C"/>
<path d="M81.1596 291.139C82.7828 291.139 84.0986 289.828 84.0986 288.212C84.0986 286.595 82.7828 285.285 81.1596 285.285C79.5365 285.285 78.2207 286.595 78.2207 288.212C78.2207 289.828 79.5365 291.139 81.1596 291.139Z" fill="#0A050C"/>
<path d="M81.1596 331.781C83.0325 331.781 84.5507 330.269 84.5507 328.404C84.5507 326.539 83.0325 325.026 81.1596 325.026C79.2868 325.026 77.7686 326.539 77.7686 328.404C77.7686 330.269 79.2868 331.781 81.1596 331.781Z" fill="#0A050C"/>
<path d="M81.1596 372.986C83.5319 372.986 85.455 371.071 85.455 368.708C85.455 366.346 83.5319 364.43 81.1596 364.43C78.7874 364.43 76.8643 366.346 76.8643 368.708C76.8643 371.071 78.7874 372.986 81.1596 372.986Z" fill="#0A050C"/>
<path d="M117.896 213.795C121.267 213.795 124 211.073 124 207.715C124 204.358 121.267 201.636 117.896 201.636C114.525 201.636 111.792 204.358 111.792 207.715C111.792 211.073 114.525 213.795 117.896 213.795Z" fill="#0A050C"/>
<path d="M117.896 252.636C120.456 252.636 122.531 250.569 122.531 248.02C122.531 245.471 120.456 243.404 117.896 243.404C115.337 243.404 113.262 245.471 113.262 248.02C113.262 250.569 115.337 252.636 117.896 252.636Z" fill="#0A050C"/>
<path d="M117.896 291.927C119.956 291.927 121.626 290.264 121.626 288.212C121.626 286.16 119.956 284.497 117.896 284.497C115.836 284.497 114.166 286.16 114.166 288.212C114.166 290.264 115.836 291.927 117.896 291.927Z" fill="#0A050C"/>
<path d="M117.896 331.894C119.831 331.894 121.4 330.331 121.4 328.404C121.4 326.476 119.831 324.914 117.896 324.914C115.96 324.914 114.392 326.476 114.392 328.404C114.392 330.331 115.96 331.894 117.896 331.894Z" fill="#0A050C"/>
<path d="M117.896 372.987C120.268 372.987 122.191 371.072 122.191 368.709C122.191 366.346 120.268 364.431 117.896 364.431C115.524 364.431 113.601 366.346 113.601 368.709C113.601 371.072 115.524 372.987 117.896 372.987Z" fill="#0A050C"/>
</svg>
