<svg width="245" height="59" viewBox="0 0 245 59" fill="none" xmlns="http://www.w3.org/2000/svg">
<g clip-path="url(#clip0)">
<path d="M28.7889 8.02505L16.5026 37.3906H12.3316L0 8.02505H6.12047L14.4624 28.8275L22.7591 8.02505H28.7889Z" fill="#020101"/>
<path d="M67.0986 8.02505H72.6297V32.4141H85.8227V37.3905H67.0986V8.02505Z" fill="#020101"/>
<path d="M93.3486 12.7325H83.6919V8.02505H108.582V12.7325H98.925V37.3905H93.394V12.7325H93.3486Z" fill="#020101"/>
<path d="M118.737 8.02505H122.908L135.194 37.4354H129.21L126.762 31.0691H114.929L112.435 37.4354H106.405L118.737 8.02505ZM124.993 26.4962L120.822 15.7811L116.651 26.4962H124.993Z" fill="#020101"/>
<path d="M140.227 31.2036L142.584 30.6208C143.083 33.8488 145.531 35.5524 148.795 35.5524C152.105 35.5524 154.236 33.6694 154.236 31.1588C154.236 25.0167 141.632 27.0342 141.632 19.7713C141.632 16.1398 144.715 13.8085 148.569 13.8085C151.561 13.8085 153.964 14.9293 155.505 17.5745L153.51 18.7401C152.377 16.8123 150.745 15.826 148.478 15.826C145.939 15.826 143.99 17.44 143.99 19.6368C143.99 25.196 156.593 23.2682 156.593 30.9795C156.593 34.9696 153.148 37.6147 148.705 37.6147C144.534 37.6147 140.952 35.3282 140.227 31.2036Z" fill="#020101"/>
<path d="M186.697 14.0775H189.054V35.2386H200.252V37.3906H186.651V14.0775H186.697Z" fill="#020101"/>
<path d="M212.222 14.0775H214.216L223.284 37.3906H220.7L218.614 31.7416H207.824L205.693 37.3906H203.109L212.222 14.0775ZM217.889 29.8138L213.219 17.2606L208.595 29.8138H217.889Z" fill="#020101"/>
<path d="M228.407 14.0775H235.253C239.968 14.0775 243.413 16.4088 243.413 20.5782C243.413 23.7165 241.418 25.8685 238.245 26.5858L245.045 37.3906H242.325L235.933 26.81C235.434 26.8548 234.845 26.8548 234.301 26.8548H230.764V37.3906H228.407V14.0775ZM235.479 24.9719C239.061 24.927 241.056 23.3579 241.056 20.5782C241.056 17.7538 238.88 16.095 235.298 16.095H230.81V24.9719H235.479Z" fill="#020101"/>
<path d="M170.829 13.7636C164.165 13.7636 158.77 19.0987 158.77 25.6892C158.77 32.2796 164.165 37.6147 170.829 37.6147C177.494 37.6147 182.889 32.2796 182.889 25.6892C182.889 19.0987 177.494 13.7636 170.829 13.7636ZM170.829 35.1937C165.525 35.1937 161.218 30.9346 161.218 25.6892C161.218 20.4437 165.525 16.1846 170.829 16.1846C176.134 16.1846 180.441 20.4437 180.441 25.6892C180.441 30.9346 176.134 35.1937 170.829 35.1937Z" fill="#020101"/>
<path d="M70.4531 46.671H76.6189V47.5228H71.3599V50.9301H76.0749V51.7819H71.3599V55.1892H76.6189V56.041H70.4531V46.671Z" fill="#020101"/>
<path d="M78.8857 49.4058H79.7471V50.5266C80.1552 49.7196 80.9712 49.3161 81.8326 49.3161C83.3741 49.3161 84.0995 50.3921 84.1448 51.8267V55.9962H83.2834V52.0061C83.2834 50.7956 82.694 50.0783 81.606 50.0783C80.4725 50.0783 79.7471 50.7956 79.7471 52.0509V55.9514H78.8857V49.4058Z" fill="#020101"/>
<path d="M86.1851 52.7234C86.1851 50.8404 87.2278 49.2713 89.1773 49.2713C91.3534 49.2713 92.0788 51.0197 92.0788 52.3199C92.0788 52.5441 92.0788 52.8131 92.0335 52.9027H87.1371C87.1825 54.3822 87.9985 55.2789 89.3133 55.2789C90.1293 55.2789 90.6734 55.0547 91.2628 54.427L91.8975 54.965C91.1721 55.7272 90.4014 56.041 89.3133 56.041C87.2731 56.0859 86.1851 54.6064 86.1851 52.7234ZM91.1721 52.2751C91.1721 52.1406 91.1721 52.0061 91.1721 51.8716C91.0814 50.9749 90.492 50.0334 89.1773 50.0334C87.9532 50.0334 87.2278 50.9749 87.1371 52.2751H91.1721Z" fill="#020101"/>
<path d="M94.2094 49.4058H95.0708V50.7956C95.3882 49.7644 96.3402 49.3161 97.1109 49.3161C97.4736 49.3161 97.8817 49.4058 98.1537 49.6299L97.7457 50.3473C97.519 50.2128 97.247 50.1679 96.9749 50.1679C96.0682 50.1679 95.0255 50.8404 95.0255 52.6337V55.9962H94.1641V49.4058H94.2094Z" fill="#020101"/>
<path d="M104.637 57.0273C104.637 58.3275 103.458 59.0448 101.872 59.0448C99.9675 59.0448 98.8794 58.1033 98.8794 56.8032C98.8794 56.6687 98.8794 56.579 98.8794 56.5342L99.8768 55.6375C99.3781 55.4134 99.0154 55.0547 99.0154 54.3822C99.0154 53.8442 99.2421 53.4407 99.7408 53.1269C99.3781 52.7234 99.1514 52.2302 99.1514 51.6474C99.1514 50.3024 100.24 49.3609 101.69 49.3609C102.325 49.3609 102.914 49.5402 103.368 49.8989L104.274 49.0919L104.728 49.6747L103.821 50.4369C104.048 50.7956 104.184 51.1991 104.184 51.6922C104.184 53.0372 103.096 53.9339 101.69 53.9339C101.146 53.9339 100.693 53.7994 100.285 53.5752C99.9221 53.7545 99.7408 53.9787 99.7408 54.2477C99.7408 54.965 100.648 55.0995 101.872 55.234C103.232 55.3685 104.637 55.5927 104.637 57.0273ZM103.821 57.0722C103.821 56.2203 102.869 56.1307 101.6 55.9513C101.237 55.9065 100.829 55.8617 100.466 55.772L99.6955 56.6687C99.6955 56.7583 99.6955 56.8032 99.6955 56.8928C99.7861 57.8343 100.648 58.3275 101.872 58.3275C103.05 58.3275 103.821 57.8792 103.821 57.0722ZM100.058 51.5577C100.058 52.4544 100.693 53.1269 101.69 53.1269C102.688 53.1269 103.322 52.4992 103.322 51.5577C103.322 50.6162 102.688 49.9886 101.69 49.9886C100.738 49.9886 100.058 50.6162 100.058 51.5577Z" fill="#020101"/>
<path d="M108.49 55.9065L105.634 49.4058H106.586L108.944 54.9202L110.984 49.4058H111.936L108.264 58.8207H107.312L108.49 55.9065Z" fill="#020101"/>
<path d="M117.06 53.4855L117.966 53.2614C118.148 54.5615 119.1 55.234 120.369 55.234C121.639 55.234 122.455 54.4719 122.455 53.4855C122.455 51.0197 117.604 51.8267 117.604 48.9126C117.604 47.478 118.782 46.5365 120.278 46.5365C121.412 46.5365 122.364 46.9848 122.953 48.0159L122.183 48.4643C121.729 47.7021 121.095 47.2986 120.233 47.2986C119.236 47.2986 118.51 47.9263 118.51 48.8229C118.51 51.0197 123.361 50.2576 123.361 53.351C123.361 54.965 122.047 55.9962 120.324 55.9962C118.737 56.0858 117.332 55.1444 117.06 53.4855Z" fill="#020101"/>
<path d="M124.948 52.6786C124.948 50.7956 126.263 49.2713 128.167 49.2713C130.071 49.2713 131.431 50.7956 131.431 52.6786C131.431 54.5615 130.071 56.0859 128.167 56.0859C126.263 56.0859 124.948 54.5615 124.948 52.6786ZM130.524 52.6786C130.524 51.2439 129.663 50.0783 128.212 50.0783C126.761 50.0783 125.9 51.2439 125.9 52.6786C125.9 54.158 126.761 55.3237 128.212 55.3237C129.617 55.3237 130.524 54.1132 130.524 52.6786Z" fill="#020101"/>
<path d="M133.562 54.6064V46.671H134.423V54.3822C134.423 54.8754 134.469 55.3237 135.149 55.3237C135.285 55.3237 135.511 55.2789 135.693 55.2789V56.041C135.421 56.0859 135.058 56.1307 134.741 56.1307C133.834 56.0859 133.562 55.503 133.562 54.6064Z" fill="#020101"/>
<path d="M137.37 53.5752V49.4058H138.232V53.3959C138.232 54.6064 138.821 55.3237 139.909 55.3237C141.042 55.3237 141.768 54.6064 141.768 53.3511V49.4506H142.629V56.041H141.768V54.9202C141.36 55.7272 140.544 56.1307 139.682 56.1307C138.096 56.0859 137.415 54.965 137.37 53.5752Z" fill="#020101"/>
<path d="M145.576 54.1132V50.1231H144.488V49.4058H145.622V47.4779L146.483 46.8503V49.4058H148.342V50.1231H146.483V53.9787C146.483 54.9202 146.846 55.2789 147.571 55.2789C147.843 55.2789 148.161 55.1892 148.342 55.0995V55.9065C148.115 55.9513 147.753 56.041 147.39 56.041C146.211 56.0858 145.576 55.3685 145.576 54.1132Z" fill="#020101"/>
<path d="M150.427 46.671H151.334V48.0159H150.427V46.671ZM150.427 49.4058H151.289V55.9962H150.427V49.4058Z" fill="#020101"/>
<path d="M153.465 52.6786C153.465 50.7956 154.78 49.2713 156.684 49.2713C158.588 49.2713 159.948 50.7956 159.948 52.6786C159.948 54.5615 158.588 56.0859 156.684 56.0859C154.78 56.0859 153.465 54.5615 153.465 52.6786ZM158.996 52.6786C158.996 51.2439 158.135 50.0783 156.684 50.0783C155.233 50.0783 154.372 51.2439 154.372 52.6786C154.372 54.158 155.233 55.3237 156.684 55.3237C158.135 55.3237 158.996 54.1132 158.996 52.6786Z" fill="#020101"/>
<path d="M162.079 49.4058H162.94V50.5266C163.348 49.7196 164.164 49.3161 165.025 49.3161C166.567 49.3161 167.292 50.3921 167.338 51.8267V55.9962H166.476V52.0061C166.476 50.7956 165.887 50.0783 164.799 50.0783C163.665 50.0783 162.94 50.7956 162.94 52.0509V55.9514H162.079V49.4058Z" fill="#020101"/>
<path d="M169.197 54.3374L169.922 54.0236C170.194 54.7409 170.829 55.3237 171.872 55.3237C172.869 55.3237 173.413 54.7857 173.413 54.1132C173.413 52.3199 169.559 53.4407 169.559 51.0646C169.559 49.8989 170.557 49.2713 171.826 49.2713C172.869 49.2713 173.685 49.7644 174.184 50.6611L173.504 51.0198C173.186 50.4369 172.642 49.9886 171.826 49.9886C170.965 49.9886 170.421 50.3921 170.421 50.9749C170.421 52.6337 174.32 51.5577 174.32 54.0684C174.32 55.3685 173.232 56.041 171.962 56.041C170.602 56.0859 169.559 55.3237 169.197 54.3374Z" fill="#020101"/>
<path d="M45.382 7.53189C36.768 7.53189 29.7861 14.4361 29.7861 22.9544C29.7861 31.4726 36.768 38.3769 45.382 38.3769C53.996 38.3769 60.9778 31.4726 60.9778 22.9544C60.9778 14.4361 53.996 7.53189 45.382 7.53189ZM45.382 33.0866C39.7149 33.0866 35.1359 28.5585 35.1359 22.9544C35.1359 17.3503 39.7149 12.8222 45.382 12.8222C51.0491 12.8222 55.6281 17.3503 55.6281 22.9544C55.5828 28.5585 51.0038 33.0866 45.382 33.0866Z" fill="#020101"/>
<path d="M25.6607 29.0068C26.1365 29.0068 26.5221 28.6255 26.5221 28.155C26.5221 27.6846 26.1365 27.3032 25.6607 27.3032C25.185 27.3032 24.7993 27.6846 24.7993 28.155C24.7993 28.6255 25.185 29.0068 25.6607 29.0068Z" fill="#F3BD48"/>
<path d="M39.4429 1.97263C39.9187 1.97263 40.3043 1.59125 40.3043 1.12081C40.3043 0.650356 39.9187 0.268982 39.4429 0.268982C38.9672 0.268982 38.5815 0.650356 38.5815 1.12081C38.5815 1.59125 38.9672 1.97263 39.4429 1.97263Z" fill="#F3BD48"/>
<path d="M58.3487 8.15955C58.8244 8.15955 59.2101 7.77817 59.2101 7.30773C59.2101 6.83728 58.8244 6.4559 58.3487 6.4559C57.873 6.4559 57.4873 6.83728 57.4873 7.30773C57.4873 7.77817 57.873 8.15955 58.3487 8.15955Z" fill="#F3BD48"/>
<path d="M63.8341 36.5387C64.3098 36.5387 64.6955 36.1574 64.6955 35.6869C64.6955 35.2165 64.3098 34.8351 63.8341 34.8351C63.3583 34.8351 62.9727 35.2165 62.9727 35.6869C62.9727 36.1574 63.3583 36.5387 63.8341 36.5387Z" fill="#F3BD48"/>
<path d="M52.0469 42.5912C52.5227 42.5912 52.9083 42.2098 52.9083 41.7393C52.9083 41.2689 52.5227 40.8875 52.0469 40.8875C51.5712 40.8875 51.1855 41.2689 51.1855 41.7393C51.1855 42.2098 51.5712 42.5912 52.0469 42.5912Z" fill="#F3BD48"/>
<path d="M38.3548 3.8556C38.3548 3.90043 38.3548 3.94526 38.3548 3.94526C38.4002 4.12459 38.6268 4.21426 38.8082 4.16943C43.8859 2.42095 49.3263 2.73478 54.132 5.02125C54.54 5.20058 54.9481 5.42475 55.3561 5.64891C55.5375 5.73857 55.7188 5.69374 55.8548 5.51441C55.9455 5.33508 55.9002 5.15575 55.7188 5.02125C55.3108 4.79709 54.8574 4.57292 54.4494 4.34876C49.4623 1.97262 43.7952 1.65879 38.5815 3.4521C38.4002 3.5866 38.3095 3.7211 38.3548 3.8556Z" fill="#F3BD48"/>
<path d="M27.474 33.1314C27.474 33.1763 27.474 33.2659 27.5193 33.3108C29.6048 36.8526 32.6877 39.677 36.4507 41.4703C39.9869 43.1292 43.8859 43.8016 47.7395 43.3981C47.9209 43.3981 48.0569 43.2188 48.0569 42.9947C48.0569 42.8153 47.8755 42.6808 47.6488 42.6808C43.9312 43.0843 40.1229 42.4567 36.7227 40.7978C33.0957 39.0942 30.1035 36.3594 28.1087 32.9521C28.018 32.7728 27.7913 32.7279 27.61 32.8176C27.5193 32.9073 27.4286 32.9969 27.474 33.1314Z" fill="#F3BD48"/>
<path d="M56.0361 39.9909C56.0361 40.0357 56.0361 40.1254 56.0815 40.1702C56.1721 40.3495 56.3988 40.3943 56.5802 40.3047C58.2576 39.2735 59.7991 38.0182 61.1139 36.5836C61.3405 36.3594 66.2823 31.0243 66.0102 22.1922C66.0102 22.0129 65.8289 21.8336 65.6475 21.8784C65.4662 21.8784 65.2848 22.0577 65.3302 22.2371C65.6022 30.7553 60.6605 36.0456 60.6151 36.1352C59.3457 37.525 57.8496 38.7355 56.2628 39.7219C56.0815 39.7667 56.0361 39.9012 56.0361 39.9909Z" fill="#F3BD48"/>
<path d="M27.2476 20.7576C27.2476 20.9369 27.3836 21.0714 27.5649 21.0714C27.7463 21.0714 27.9276 20.9818 27.9276 20.7576C28.1543 18.8746 28.6983 16.9916 29.5597 15.2432C31.5999 11.0289 35.1815 7.89057 39.6245 6.36625C44.0675 4.84194 48.8732 5.11094 53.0895 7.12841C61.8395 11.2979 65.5571 21.7439 61.3408 30.3966C59.3007 34.6109 55.7191 37.7492 51.2761 39.2735C46.833 40.7979 42.0274 40.5289 37.811 38.5114C37.6297 38.4217 37.4483 38.5114 37.3577 38.6907C37.267 38.87 37.3577 39.0494 37.539 39.139C41.9367 41.2462 46.9237 41.5152 51.5481 39.9012C56.1724 38.2872 59.89 35.0144 62.0209 30.6656C66.4185 21.6542 62.5649 10.8047 53.4522 6.50075C49.0546 4.39361 44.0675 4.12461 39.4432 5.7386C34.8188 7.35258 31.1012 10.6254 28.9704 14.9742C28.109 16.7675 27.5196 18.6953 27.2929 20.6679C27.2476 20.7128 27.2476 20.7128 27.2476 20.7576Z" fill="#F3BD48"/>
<path d="M23.3936 31.4278C23.3936 31.4726 23.3936 31.5175 23.3936 31.5175C24.0736 33.3108 24.7537 34.3419 24.8443 34.4764C25.8417 36.1801 27.1112 37.7492 28.6526 39.1391C32.9596 43.1292 37.7653 44.6535 37.992 44.6983C46.6967 47.6125 56.3081 45.1467 62.5645 38.4666C62.7005 38.3321 62.7005 38.1079 62.5645 37.9734C62.4285 37.8389 62.2018 37.8389 62.0658 37.9734C56.036 44.4742 46.6967 46.8503 38.264 44.0258C38.2187 44.0258 33.3676 42.5015 29.1967 38.6011C27.7005 37.2112 26.4765 35.6869 25.5244 34.0729V34.0281C25.5244 34.0281 24.799 33.0418 24.1189 31.2485C24.0283 31.0691 23.8469 30.9795 23.6656 31.0243C23.4389 31.1588 23.3936 31.2933 23.3936 31.4278Z" fill="#F3BD48"/>
<path d="M42.1177 0.537985C42.1177 0.537985 42.1177 0.582818 42.1177 0.537985C42.163 0.762149 42.3444 0.896648 42.5257 0.896648C45.926 0.448319 49.3262 0.806982 52.6358 1.88297C56.2628 3.09346 59.527 5.2006 62.0659 7.98023C62.1112 8.02507 63.6073 9.45972 65.0128 12.1945C65.1034 12.3739 65.3301 12.4187 65.4661 12.329C65.6475 12.2394 65.6928 12.0152 65.6021 11.8807C64.1514 9.01139 62.6099 7.53191 62.5192 7.48707C59.8897 4.66261 56.5348 2.4658 52.8172 1.21048C49.4169 0.0896567 45.926 -0.269006 42.3897 0.179322C42.2537 0.224155 42.1177 0.358654 42.1177 0.537985Z" fill="#F3BD48"/>
</g>
<defs>
<clipPath id="clip0">
<rect width="245" height="59" fill="white"/>
</clipPath>
</defs>
</svg>
