<?xml version="1.0" encoding="utf-8"?>
<!-- Generator: Adobe Illustrator 24.0.0, SVG Export Plug-In . SVG Version: 6.00 Build 0)  -->
<svg version="1.1" id="Capa_1" xmlns="http://www.w3.org/2000/svg" xmlns:xlink="http://www.w3.org/1999/xlink" x="0px" y="0px"
	 viewBox="0 0 256 256" style="enable-background:new 0 0 256 256;" xml:space="preserve">
<style type="text/css">
	.st0{fill:#020203;}
</style>
<g>
	<g>
		<path class="st0" d="M160.72,87.71c-2.03,0-3.67,1.64-3.67,3.67v8.61h-2.74c-8.01,0-14.5,6.49-14.51,14.49
			c0,8.01,6.49,14.5,14.49,14.51c0,0,0.01,0,0.01,0h12.81c3.96,0,7.16,3.21,7.16,7.16s-3.21,7.16-7.16,7.16h-19.73
			c-2.03,0-3.67,1.64-3.67,3.67s1.64,3.67,3.67,3.67h9.78v8.22c0,2.03,1.64,3.67,3.66,3.67c2.03,0,3.67-1.64,3.67-3.66
			c0,0,0-0.01,0-0.01v-8.22h2.74c8.01,0,14.5-6.49,14.5-14.5c0-8.01-6.49-14.5-14.5-14.5h-12.93c-3.96,0-7.16-3.21-7.16-7.16
			s3.21-7.16,7.16-7.16h18.17c2.03,0,3.67-1.64,3.67-3.67c0-2.03-1.64-3.67-3.67-3.67h-8.09v-8.61
			C164.39,89.35,162.74,87.71,160.72,87.71z"/>
		<path class="st0" d="M238.18,64.95H58.15c-2.03,0-3.67,1.64-3.67,3.67v13.45c0,2.03,1.64,3.67,3.67,3.67s3.67-1.64,3.67-3.67
			v-9.78h172.7v105.68H61.81v-9.78c0-2.03-1.64-3.67-3.67-3.67s-3.67,1.64-3.67,3.67v13.4c0,2.03,1.64,3.67,3.67,3.67h180.04
			c2.03,0,3.67-1.64,3.67-3.67V68.62C241.85,66.59,240.21,64.95,238.18,64.95z"/>
		<path class="st0" d="M88.61,98.3c0-2.03-1.64-3.67-3.67-3.67H8.34c-2.03,0-3.67,1.64-3.67,3.67s1.64,3.67,3.67,3.67h76.61
			C86.97,101.97,88.61,100.33,88.61,98.3z"/>
		<path class="st0" d="M29.56,125.12c0,2.03,1.64,3.67,3.67,3.67H92.7c2.03,0,3.67-1.64,3.67-3.67c0-2.03-1.64-3.67-3.67-3.67H33.23
			C31.2,121.46,29.56,123.1,29.56,125.12z"/>
		<path class="st0" d="M88.61,151.95c0-2.03-1.64-3.67-3.67-3.67H25.58c-2.03,0-3.67,1.64-3.67,3.67s1.64,3.67,3.67,3.67h59.37
			C86.97,155.61,88.61,153.97,88.61,151.95z"/>
	</g>
</g>
</svg>
