<?xml version="1.0" encoding="utf-8"?>
<!-- Generator: Adobe Illustrator 24.0.3, SVG Export Plug-In . SVG Version: 6.00 Build 0)  -->
<svg version="1.1" id="Layer_1" xmlns="http://www.w3.org/2000/svg" xmlns:xlink="http://www.w3.org/1999/xlink" x="0px" y="0px"
	 viewBox="0 0 287.9 509.5" style="enable-background:new 0 0 287.9 509.5;" xml:space="preserve">
<title>Asset 2dinero</title>
<g id="Layer_2_1_">
	<g id="Layer_1-2">
		<g>
			<path d="M144.3,509.5C144.3,509.5,144.3,509.5,144.3,509.5c-8.7,0-16.9-3.4-23.1-9.6c-6.2-6.2-9.6-14.4-9.6-23.1v-26.1
				c-24.5-4.5-47.1-14.1-65.4-27.9c-29-21.7-45.6-52.7-45.6-85c0-18,14.6-32.7,32.6-32.7c0,0,0,0,0,0c18,0,32.6,14.6,32.6,32.6
				c0,19.1,18.5,37.3,45.7,45.7v-99.3c-24.5-4.5-47.1-14.1-65.4-27.9c-29-21.7-45.6-52.7-45.6-85s16.6-63.3,45.6-85
				c18.3-13.7,40.9-23.3,65.4-27.9V32.7c0-18,14.6-32.7,32.6-32.7c0,0,0,0,0,0c18,0,32.6,14.6,32.6,32.7v25.8
				c24.5,4.5,47,14.1,65.4,27.9c29,21.7,45.6,52.7,45.6,85c-0.3,17.7-14.4,31.8-32,32.1c-8.7,0.2-17-3.1-23.3-9.1
				c-6.3-6.1-9.8-14.2-10-22.9l2.3,0h-2.3c0-19.1-18.5-37.3-45.7-45.7V225c24.5,4.5,47,14.1,65.4,27.9c29,21.7,45.6,52.7,45.6,85
				c0,32.3-16.6,63.3-45.6,85c-18.4,13.8-40.9,23.4-65.4,27.9v26.1c0,8.7-3.4,16.9-9.6,23.1C161.2,506.1,153,509.5,144.3,509.5z
				 M33.3,315C33.3,315,33.3,315,33.3,315c-12.6,0-22.9,10.3-22.8,22.9c0,29.2,15.2,57.3,41.6,77.1c18.1,13.6,40.7,22.9,65.2,26.8
				l4.1,0.7v34.4c0,6.1,2.4,11.8,6.7,16.2c4.3,4.3,10,6.7,16.2,6.7c0,0,0,0,0,0c6.1,0,11.8-2.4,16.2-6.7c4.3-4.3,6.7-10,6.7-16.2
				v-34.4l4.1-0.7c24.5-3.9,47.1-13.2,65.2-26.8c26.5-19.8,41.7-48,41.7-77.1c0-29.2-15.2-57.3-41.6-77.1
				c-18.1-13.6-40.7-22.9-65.2-26.8l-4.1-0.7V113l6.1,1.5c35.4,8.7,59.2,31.5,59.2,56.8c0.1,6.1,2.6,11.8,7,16
				c4.4,4.2,10.2,6.5,16.3,6.4c12.3-0.2,22.2-10.1,22.4-22.4c0-29.1-15.2-57.2-41.7-77c-18.1-13.6-40.7-22.9-65.2-26.8l-4.1-0.7
				V32.7c0-12.6-10.2-22.8-22.8-22.8c-12.6,0-22.8,10.2-22.8,22.8v34.1l-4.1,0.7c-24.6,4-47.2,13.3-65.2,26.8
				c-26.5,19.9-41.6,48-41.6,77.1s15.2,57.3,41.6,77.1c18.1,13.6,40.7,22.9,65.2,26.8l4.1,0.7v120.3l-6.1-1.5
				c-35.4-8.7-59.2-31.6-59.2-56.9C56.1,325.2,45.9,315,33.3,315z M167.1,396.3V279.4l6.1,1.5c35.4,8.7,59.2,31.6,59.2,56.9
				c0,25.4-23.8,48.3-59.2,57L167.1,396.3z M176.9,292.1v91.5c27.2-8.4,45.7-26.7,45.7-45.7C222.6,318.8,204.1,300.6,176.9,292.1z
				 M121.4,229.9l-6.1-1.5c-35.4-8.7-59.2-31.6-59.2-57c0-25.4,23.8-48.3,59.2-56.9l6.1-1.5V229.9z M111.6,125.6
				c-27.2,8.4-45.7,26.7-45.7,45.7c0,19.1,18.5,37.3,45.7,45.8V125.6z"/>
		</g>
	</g>
</g>
</svg>
