<svg xmlns="http://www.w3.org/2000/svg" viewBox="0 0 433.89 512"><title>Asset 2cfe-2</title><g id="Layer_2" data-name="Layer 2"><g id="Layer_1-2" data-name="Layer 1"><path d="M394.53,0H87.66a7.81,7.81,0,0,0,0,15.61H394.53a23.79,23.79,0,0,1,23.76,23.76V411.66a7.8,7.8,0,0,0,15.6,0V39.37A39.41,39.41,0,0,0,394.53,0Z"/><path d="M426.09,436.63a7.8,7.8,0,0,0-7.8,7.81v28.2a23.79,23.79,0,0,1-23.76,23.75H39.36a23.78,23.78,0,0,1-23.75-23.75V39.37A23.79,23.79,0,0,1,39.36,15.61H54.11A7.81,7.81,0,0,0,54.11,0H39.36A39.41,39.41,0,0,0,0,39.37V472.64A39.41,39.41,0,0,0,39.36,512H394.53a39.41,39.41,0,0,0,39.36-39.36v-28.2A7.8,7.8,0,0,0,426.09,436.63Z"/><path d="M56.05,87.4H212a7.16,7.16,0,0,0,0-14.31H56.05a7.16,7.16,0,0,0,0,14.31Z"/><path d="M56.05,121.19H168.93a7.16,7.16,0,1,0,0-14.31H56.05a7.16,7.16,0,0,0,0,14.31Z"/><path d="M64.13,461.79H209.91c5.11,0,9.24-3.21,9.24-7.16s-4.13-7.15-9.24-7.15H64.13c-5.1,0-9.23,3.2-9.23,7.15S59,461.79,64.13,461.79Z"/><path d="M56.05,155H168.93a7.16,7.16,0,1,0,0-14.31H56.05a7.16,7.16,0,0,0,0,14.31Z"/><path d="M370,176.75H260.16a18,18,0,0,1-18-18V68.07a18,18,0,0,1,18-18H370a18,18,0,0,1,18,18v90.68A18,18,0,0,1,370,176.75ZM260.16,62.07a6,6,0,0,0-6,6v90.68a6,6,0,0,0,6,6H370a6,6,0,0,0,6-6V68.07a6,6,0,0,0-6-6Z"/><path d="M370,251.76H260.16a18,18,0,0,1-18-18V200.42a18,18,0,0,1,18-18H370a18,18,0,0,1,18,18v33.34A18,18,0,0,1,370,251.76ZM260.16,194.42a6,6,0,0,0-6,6v33.34a6,6,0,0,0,6,6H370a6,6,0,0,0,6-6V200.42a6,6,0,0,0-6-6Z"/><path d="M195.15,327.41H60.9a18,18,0,0,1-18-18v-109a18,18,0,0,1,18-18H195.15a18,18,0,0,1,18,18v109A18,18,0,0,1,195.15,327.41ZM60.9,194.42a6,6,0,0,0-6,6v109a6,6,0,0,0,6,6H195.15a6,6,0,0,0,6-6v-109a6,6,0,0,0-6-6Z"/><path d="M370,327.41H260.16a18,18,0,0,1-18-18V276.06a18,18,0,0,1,18-18H370a18,18,0,0,1,18,18v33.35A18,18,0,0,1,370,327.41ZM260.16,270.06a6,6,0,0,0-6,6v33.35a6,6,0,0,0,6,6H370a6,6,0,0,0,6-6V276.06a6,6,0,0,0-6-6Z"/><path d="M370,462.26H260.16a18,18,0,0,1-18-18V350.59a18,18,0,0,1,18-18H370a18,18,0,0,1,18,18v93.67A18,18,0,0,1,370,462.26ZM260.16,344.59a6,6,0,0,0-6,6v93.67a6,6,0,0,0,6,6H370a6,6,0,0,0,6-6V350.59a6,6,0,0,0-6-6Z"/><path d="M185.48,417.88a54.3,54.3,0,0,0-108.6,0m14.31,0a40,40,0,0,1,80,0"/></g></g></svg>