<?xml version="1.0" encoding="utf-8"?>
<!-- Generator: Adobe Illustrator 24.0.0, SVG Export Plug-In . SVG Version: 6.00 Build 0)  -->
<svg version="1.1" id="Capa_1" xmlns="http://www.w3.org/2000/svg" xmlns:xlink="http://www.w3.org/1999/xlink" x="0px" y="0px"
	 viewBox="0 0 256 256" style="enable-background:new 0 0 256 256;" xml:space="preserve">
<style type="text/css">
	.st0{fill:#020203;}
</style>
<g>
	<path class="st0" d="M75.61,216.12l-18.7,18.7c-3.33,3.33-3.33,8.45,0,11.53c3.33,3.33,8.45,3.33,11.53,0l18.7-18.7
		c3.33-3.33,3.33-8.45,0-11.53C83.81,213.05,78.68,213.05,75.61,216.12z"/>
	<path class="st0" d="M63.31,192.29c-3.33-3.33-8.45-3.33-11.53,0l-29.72,29.72c-3.33,3.33-3.33,8.45,0,11.53
		c3.33,3.33,8.45,3.33,11.53,0l29.72-29.72C66.39,200.75,66.39,195.62,63.31,192.29z"/>
	<path class="st0" d="M39.48,180c3.33-3.33,3.33-8.45,0-11.53c-3.33-3.33-8.45-3.33-11.53,0l-18.7,18.45
		c-3.33,3.33-3.33,8.45,0,11.53c3.33,3.33,8.45,3.33,11.53,0L39.48,180z"/>
	<path class="st0" d="M144.27,67.78c-12.04,12.04-12.04,31.77,0,43.81c12.04,12.04,31.77,12.04,43.81,0s12.04-31.77,0-43.81
		C175.78,55.74,156.31,55.74,144.27,67.78z M176.3,99.8c-5.64,5.64-14.86,5.64-20.5,0c-5.64-5.64-5.64-14.86,0-20.5
		c5.64-5.64,14.86-5.64,20.5,0S181.93,94.17,176.3,99.8z"/>
	<path class="st0" d="M243.42,12.18c-4.87-4.87-11.53-7.17-18.45-6.66L186.03,8.6c-21.52,1.54-41.76,10.76-57.13,26.13L94.05,69.57
		c-18.19-6.15-38.69-0.77-51.24,14.09l-19.73,23.83c-3.33,3.84-4.61,9.22-3.33,14.35c1.28,4.87,5.12,8.97,9.74,10.76
		c8.45,3.07,16.65,6.92,24.34,11.79c-5.64,5.89-5.64,15.12,0.26,21.01l36.12,36.12c5.64,5.64,15.12,5.89,21.01,0.26
		c4.61,7.69,8.71,15.88,11.79,24.34c1.79,4.87,5.89,8.45,10.76,9.74c4.87,1.28,10.25,0,14.09-3.07l24.08-19.73
		c14.6-12.55,20.24-33.05,14.09-51.24l34.84-34.84c15.37-15.37,24.6-35.61,26.39-57.13l2.82-39.2
		C250.59,23.71,248.29,17.05,243.42,12.18z M233.68,29.35l-3.07,38.94c-1.28,17.68-8.97,34.33-21.52,46.88l-38.43,38.43
		c-2.31,2.31-3.07,5.64-1.79,8.71l1.54,4.1c4.36,12.04,0.77,25.62-8.97,33.82l-23.31,19.22c-4.61-12.55-11.02-24.6-18.96-35.61
		c-1.28-2.05-3.59-3.33-5.89-3.33c-2.31-0.26-4.87,0.77-6.41,2.31l-5.89,5.89L66.9,154.63l5.89-5.89c1.79-1.79,2.56-4.1,2.31-6.4
		c-0.26-2.31-1.54-4.61-3.33-5.89c-11.02-7.94-23.06-14.09-35.61-18.96l19.22-23.31c8.2-9.74,22.03-13.32,33.82-8.97l4.1,1.54
		c3.07,1.02,6.41,0.26,8.71-1.79l38.43-38.43c12.55-12.55,29.21-20.24,46.88-21.52l38.94-3.07c2.82-0.26,4.61,1.28,5.64,2.05
		C232.66,24.74,233.94,26.53,233.68,29.35z"/>
</g>
</svg>
