<svg width="152" height="11" viewBox="0 0 152 11" fill="none" xmlns="http://www.w3.org/2000/svg">
<g clip-path="url(#clip0)">
<path d="M145 5.2C145 6.96731 146.433 8.4 148.2 8.4C149.968 8.4 151.4 6.96731 151.4 5.2C151.4 3.43269 149.968 2 148.2 2C146.433 2 145 3.43269 145 5.2Z" fill="black"/>
<path d="M109.8 5.2C109.8 6.69117 111.009 7.9 112.5 7.9C113.991 7.9 115.2 6.69117 115.2 5.2C115.2 3.70883 113.991 2.5 112.5 2.5C111.009 2.5 109.8 3.70883 109.8 5.2Z" fill="black"/>
<path d="M73.6008 5.2001C73.6008 6.91218 74.9887 8.3001 76.7008 8.3001C78.4129 8.3001 79.8008 6.91218 79.8008 5.2001C79.8008 3.48801 78.4129 2.1001 76.7008 2.1001C74.9887 2.1001 73.6008 3.48801 73.6008 5.2001Z" fill="black"/>
<path d="M37 5.19995C37 7.40909 38.7909 9.19995 41 9.19995C43.2091 9.19995 45 7.40909 45 5.19995C45 2.99081 43.2091 1.19995 41 1.19995C38.7909 1.19995 37 2.99081 37 5.19995Z" fill="black"/>
<path d="M0.0999906 5.2C0.0999905 8.07188 2.42811 10.4 5.29999 10.4C8.17187 10.4 10.5 8.07188 10.5 5.2C10.5 2.32812 8.17187 -1.01766e-07 5.29999 -2.273e-07C2.42811 -3.52834e-07 0.0999907 2.32812 0.0999906 5.2Z" fill="black"/>
</g>
<defs>
<clipPath id="clip0">
<rect width="10.5" height="151.4" fill="white" transform="translate(151.4) rotate(90)"/>
</clipPath>
</defs>
</svg>
