<svg width="157" height="169" viewBox="0 0 157 169" fill="none" xmlns="http://www.w3.org/2000/svg">
<g clip-path="url(#clip0)">
<path d="M123.436 63.5731C110.693 38.9236 80.4829 29.3393 55.959 42.1477C31.435 54.9267 21.8995 85.2916 34.6427 109.941C47.3858 134.591 77.596 144.175 102.12 131.367C126.615 118.587 136.179 88.2226 123.436 63.5731Z" fill="#F3BD48"/>
<path d="M62.8406 157.569C64.4189 157.569 65.6984 156.283 65.6984 154.697C65.6984 153.11 64.4189 151.824 62.8406 151.824C61.2624 151.824 59.9829 153.11 59.9829 154.697C59.9829 156.283 61.2624 157.569 62.8406 157.569Z" fill="#F3BD48"/>
<path d="M153.822 107.948C155.4 107.948 156.679 106.662 156.679 105.075C156.679 103.489 155.4 102.203 153.822 102.203C152.243 102.203 150.964 103.489 150.964 105.075C150.964 106.662 152.243 107.948 153.822 107.948Z" fill="#F3BD48"/>
<path d="M130.697 44.316C132.275 44.316 133.555 43.03 133.555 41.4436C133.555 39.8573 132.275 38.5713 130.697 38.5713C129.119 38.5713 127.839 39.8573 127.839 41.4436C127.839 43.03 129.119 44.316 130.697 44.316Z" fill="#F3BD48"/>
<path d="M33.1556 28.7232C34.7338 28.7232 36.0133 27.4372 36.0133 25.8509C36.0133 24.2645 34.7338 22.9785 33.1556 22.9785C31.5773 22.9785 30.2979 24.2645 30.2979 25.8509C30.2979 27.4372 31.5773 28.7232 33.1556 28.7232Z" fill="#F3BD48"/>
<path d="M13.7928 69.4346C15.3711 69.4346 16.6505 68.1487 16.6505 66.5623C16.6505 64.9759 15.3711 63.6899 13.7928 63.6899C12.2145 63.6899 10.9351 64.9759 10.9351 66.5623C10.9351 68.1487 12.2145 69.4346 13.7928 69.4346Z" fill="#F3BD48"/>
<path d="M144.49 109.12C144.373 109.12 144.256 109.091 144.14 109.061C143.527 108.856 143.178 108.182 143.382 107.567C148.835 90.186 147.26 71.7208 138.891 55.5712C138.162 54.1643 137.404 52.7867 136.587 51.4678C136.237 50.9109 136.412 50.1782 136.996 49.8265C137.55 49.4747 138.279 49.6506 138.628 50.2368C139.474 51.6144 140.261 53.0505 141.02 54.4867C149.68 71.2226 151.313 90.3325 145.656 108.299C145.452 108.798 144.985 109.12 144.49 109.12Z" fill="#F3BD48"/>
<path d="M45.6651 149.157C45.461 149.157 45.286 149.098 45.111 149.01C32.8053 142.299 22.8616 132.099 16.3588 119.554C10.2643 107.772 7.61068 94.5823 8.66046 81.3929C8.71878 80.7481 9.27283 80.2498 9.94352 80.3084C10.585 80.367 11.0808 80.9239 11.0225 81.598C10.0018 94.3185 12.568 107.068 18.4584 118.47C24.7279 130.604 34.3217 140.423 46.2191 146.929C46.8024 147.252 47.0065 147.955 46.6857 148.541C46.4816 148.923 46.0733 149.157 45.6651 149.157Z" fill="#F3BD48"/>
<path d="M19.2458 52.8452C19.0417 52.8452 18.8376 52.7866 18.6626 52.6987C18.1085 52.3763 17.9044 51.6436 18.2252 51.0574C21.5786 45.254 25.6903 39.949 30.4726 35.318C31.2016 34.5853 48.902 17.2046 79.0248 17.2046C79.6663 17.2046 80.2204 17.7322 80.2204 18.4063C80.2204 19.0804 79.6955 19.608 79.0248 19.608C49.9226 19.608 32.2805 36.8714 32.1056 37.018C27.4691 41.5024 23.4741 46.6316 20.2373 52.2591C20.0331 52.6108 19.6541 52.8452 19.2458 52.8452Z" fill="#F3BD48"/>
<path d="M87.8898 147.75C87.3357 147.75 86.84 147.34 86.7525 146.783C86.665 146.167 87.1024 145.552 87.7148 145.464C94.1009 144.496 100.283 142.474 106.086 139.455C120.025 132.157 130.318 119.847 135.071 104.782C139.825 89.7166 138.425 73.6841 131.164 59.6741C116.205 30.7161 80.5996 19.4025 51.7891 34.4677C37.8504 41.7658 27.5276 54.0759 22.8036 69.1411C18.0796 84.177 19.4501 100.209 26.7111 114.22C27.0027 114.776 26.7986 115.48 26.2154 115.773C25.6613 116.066 24.9614 115.861 24.6698 115.275C17.1464 100.708 15.6884 84.0598 20.6165 68.4084C25.5447 52.757 36.2466 39.9486 50.7393 32.3867C80.658 16.7646 117.663 28.5178 133.205 58.5896C140.729 73.1566 142.187 89.8045 137.258 105.456C132.33 121.107 121.628 133.916 107.136 141.478C101.129 144.614 94.6841 146.724 88.0356 147.721C88.0064 147.75 87.9481 147.75 87.8898 147.75Z" fill="#F3BD48"/>
<path d="M51.8763 162.815C51.7597 162.815 51.6139 162.786 51.4972 162.757C45.3152 160.646 41.7576 158.39 41.2911 158.067C35.4298 154.902 29.9185 150.74 24.9029 145.698C10.8184 131.542 5.16124 115.334 4.92796 114.63C-5.89058 85.4083 1.45786 52.4056 23.6781 30.5991C24.1447 30.1302 24.9029 30.1595 25.3694 30.6284C25.836 31.0974 25.8069 31.8594 25.3403 32.3284C3.7907 53.4607 -3.35362 85.467 7.17331 113.809C7.23163 113.985 12.9179 130.252 26.5942 143.969C31.464 148.864 36.8004 152.909 42.4866 155.957L42.5741 156.016C42.6033 156.045 46.0734 158.331 52.2846 160.471C52.8969 160.676 53.2469 161.35 53.0136 161.995C52.8386 162.493 52.372 162.815 51.8763 162.815Z" fill="#F3BD48"/>
<path d="M155.454 95.9011C155.425 95.9011 155.367 95.9011 155.338 95.9011C154.696 95.8424 154.2 95.2562 154.288 94.6114C155.425 82.9754 153.938 71.4567 149.856 60.407C145.336 48.2434 137.812 37.3988 128.073 29.0162C127.956 28.899 122.882 23.9749 113.317 19.4905C112.734 19.2268 112.472 18.494 112.734 17.9078C112.997 17.3216 113.726 17.0578 114.309 17.3216C124.282 21.9819 129.472 27.0525 129.676 27.2576C139.678 35.8454 147.435 47.0417 152.072 59.557C156.3 70.9585 157.845 82.7996 156.65 94.8166C156.562 95.4614 156.038 95.9011 155.454 95.9011Z" fill="#F3BD48"/>
<path d="M46.5402 6.62355L47.1526 16.0613L40.3873 9.43728L37.9087 10.6097L48.1149 20.3991L49.777 19.6371L49.0188 5.48047L46.5402 6.62355Z" fill="#F3BD48"/>
<path d="M63.22 3.54665C61.8495 2.4915 60.129 2.1984 58.2336 2.69666C54.6468 3.60527 52.9847 6.74141 53.9761 10.6982C54.8218 14.0102 57.0088 15.9447 59.8082 15.9447C60.3331 15.9447 60.9163 15.8861 61.4704 15.7395C63.3367 15.2705 64.7072 14.1861 65.4362 12.6034C66.0777 11.2258 66.1652 9.49652 65.7278 7.73794C65.3196 5.92074 64.4156 4.42594 63.22 3.54665ZM63.22 11.5189C62.8409 12.4568 62.0536 13.0723 60.9455 13.3361C57.8836 14.1275 56.8339 11.2844 56.5131 10.0241C56.1923 8.76378 55.7841 5.77419 58.8459 4.98282C59.1959 4.89489 59.5166 4.83628 59.8374 4.83628C60.5372 4.83628 61.1788 5.04144 61.7037 5.48109C62.4327 6.06729 62.9867 7.03451 63.2783 8.26552C63.5991 9.55514 63.5699 10.6689 63.22 11.5189Z" fill="#F3BD48"/>
<path d="M72.9886 11.1668L72.2305 0.46875L69.7227 0.644608L70.6849 13.8047L78.5583 13.2185L78.3542 10.7565L72.9886 11.1668Z" fill="#F3BD48"/>
<path d="M82.9617 13.4532L85.4695 13.629L86.1694 2.84305L90.281 3.10683L90.4268 0.703434L79.7249 0L79.5791 2.4034L83.6616 2.6965L82.9617 13.4532Z" fill="#F3BD48"/>
<path d="M98.3878 15.798L101.041 16.3842L99.146 2.43278L97.2505 2.05176L89.6396 13.8636L92.2933 14.4498L93.8971 11.8998L98.0087 12.8084L98.3878 15.798ZM95.2385 9.76022L97.2505 6.53615L97.7171 10.3171L95.2385 9.76022Z" fill="#F3BD48"/>
<path d="M87.8024 160.12C86.1986 159.68 85.2071 159.357 85.1197 158.478C85.0905 158.097 85.178 157.745 85.4113 157.482C85.7029 157.13 86.1403 156.925 86.636 156.866C87.5983 156.778 88.269 157.101 88.823 157.921L89.2313 158.507L91.3017 156.895L90.9226 156.368C89.8437 154.844 88.2982 154.17 86.4027 154.375C85.2363 154.492 84.1865 154.99 83.4867 155.752C82.7285 156.573 82.3786 157.658 82.4952 158.83C82.7577 161.409 85.0613 162.054 86.8985 162.552C88.6189 163.021 89.6687 163.373 89.7853 164.487C89.8437 164.985 89.6979 165.425 89.3479 165.776C88.998 166.157 88.444 166.421 87.7441 166.48C86.8693 166.568 85.3821 166.45 84.9155 164.604L84.7406 163.871L82.2036 164.78L82.3786 165.395C82.9909 167.652 84.8864 169.03 87.3067 169.03C87.54 169.03 87.7441 169.03 87.9774 169C90.7768 168.707 92.6139 166.656 92.3515 164.135C92.1473 161.292 89.727 160.647 87.8024 160.12Z" fill="#F3BD48"/>
<path d="M99.8164 151.561C95.9672 152.792 94.3634 156.338 95.7339 160.588C96.3463 162.493 97.4252 164.047 98.7958 164.955C99.7872 165.6 100.866 165.923 102.062 165.923C102.762 165.923 103.52 165.805 104.278 165.571C106.29 164.926 107.719 163.636 108.39 161.878C108.973 160.324 108.973 158.419 108.39 156.514C107.019 152.264 103.666 150.33 99.8164 151.561ZM105.94 160.94C105.561 162.024 104.745 162.757 103.491 163.168C102.266 163.549 101.158 163.431 100.254 162.787C99.4082 162.171 98.7083 161.145 98.3001 159.768C97.8627 158.419 97.8335 157.159 98.1543 156.163C98.5334 155.078 99.3498 154.345 100.575 153.964C101.041 153.818 101.479 153.73 101.916 153.73C102.616 153.73 103.257 153.935 103.841 154.345C104.686 154.961 105.386 155.987 105.794 157.364C106.232 158.712 106.29 159.943 105.94 160.94Z" fill="#F3BD48"/>
<path d="M117.225 157.071L111.51 146.754L109.206 148.044L116.175 160.617L123.67 156.426L122.416 154.169L117.225 157.071Z" fill="#F3BD48"/>
<path d="M121.979 139.69L127.111 154.198L129.298 152.352L128.161 149.216L131.806 146.138L134.663 147.838L136.85 145.992L123.553 138.342L121.979 139.69ZM129.502 144.819L127.198 146.754L125.624 142.533L129.502 144.819Z" fill="#F3BD48"/>
<path d="M138.542 135.03L145.248 136.115L147.173 133.74L139.854 132.685C140.291 131.073 139.795 129.52 138.483 128.435C137.463 127.585 136.267 127.292 135.042 127.556C133.934 127.791 132.855 128.523 131.98 129.637L129.269 133.037L140.437 142.123L142.099 140.071L137.521 136.349L138.25 135.44C138.367 135.294 138.454 135.147 138.542 135.03ZM135.626 134.796L132.855 132.539L133.934 131.22C134.43 130.604 134.955 130.223 135.451 130.135C135.917 130.047 136.384 130.165 136.821 130.516C137.696 131.249 137.696 132.216 136.734 133.418L135.626 134.796Z" fill="#F3BD48"/>
</g>
<defs>
<clipPath id="clip0">
<rect width="157" height="169" fill="white"/>
</clipPath>
</defs>
</svg>
