<svg width="21" height="21" viewBox="0 0 21 21" fill="none" xmlns="http://www.w3.org/2000/svg">
<path fill-rule="evenodd" clip-rule="evenodd" d="M17.4642 3.50708C15.6223 1.66306 13.1728 0.647078 10.5632 0.645996C5.18592 0.645996 0.80958 5.02221 0.807417 10.4009C0.806696 12.1204 1.25587 13.7988 2.10962 15.2782L0.725586 20.3335L5.89728 18.9769C7.32229 19.7542 8.92659 20.1638 10.5592 20.1643H10.5633C15.94 20.1643 20.3168 15.7877 20.3189 10.4088C20.32 7.80194 19.3061 5.35098 17.4642 3.50708ZM10.5632 18.5168H10.5598C9.10491 18.5161 7.67798 18.1251 6.43285 17.3865L6.13689 17.2107L3.06792 18.0158L3.88707 15.0236L3.69421 14.7168C2.88251 13.4258 2.45389 11.9336 2.45461 10.4015C2.45629 5.93088 6.09387 2.29367 10.5665 2.29367C12.7323 2.29439 14.7682 3.1389 16.2991 4.67158C17.8299 6.20425 18.6725 8.2415 18.6718 10.4082C18.6699 14.8792 15.0326 18.5168 10.5632 18.5168ZM15.0109 12.4438C14.7672 12.3217 13.5687 11.7322 13.3452 11.6508C13.122 11.5694 12.9593 11.5289 12.7969 11.7728C12.6343 12.0168 12.1673 12.5659 12.025 12.7285C11.8827 12.8912 11.7407 12.9116 11.4969 12.7895C11.2531 12.6676 10.4677 12.4101 9.53654 11.5796C8.81195 10.9333 8.32277 10.135 8.1805 9.89109C8.03846 9.64692 8.1793 9.52772 8.28744 9.39362C8.55132 9.06593 8.81556 8.72239 8.89679 8.55981C8.97814 8.39711 8.9374 8.25471 8.87636 8.13275C8.81556 8.01078 8.32806 6.81096 8.12498 6.32273C7.92695 5.84761 7.72616 5.91178 7.57644 5.90433C7.43441 5.89724 7.27182 5.8958 7.10924 5.8958C6.94678 5.8958 6.68267 5.95672 6.45916 6.20089C6.23578 6.44494 5.60613 7.03458 5.60613 8.23441C5.60613 9.43423 6.47959 10.5933 6.60144 10.756C6.72328 10.9187 8.32037 13.3809 10.7656 14.4366C11.3472 14.688 11.8011 14.8378 12.1552 14.9502C12.7392 15.1357 13.2705 15.1095 13.6906 15.0468C14.159 14.9767 15.1326 14.457 15.336 13.8877C15.539 13.3183 15.539 12.8303 15.478 12.7285C15.4172 12.6268 15.2546 12.5659 15.0109 12.4438Z" fill="white"/>
</svg>
